<svg version="1.1" viewBox="0.0 0.0 960.0 720.0" fill="none" stroke="none" stroke-linecap="square" stroke-miterlimit="10" xmlns:xlink="http://www.w3.org/1999/xlink" xmlns="http://www.w3.org/2000/svg"><clipPath id="p.0"><path d="m0 0l960.0 0l0 720.0l-960.0 0l0 -720.0z" clip-rule="nonzero"/></clipPath><g clip-path="url(#p.0)"><path fill="#000000" fill-opacity="0.0" d="m0 0l960.0 0l0 720.0l-960.0 0z" fill-rule="evenodd"/><path fill="#cfe2f3" d="m488.18896 30.236221l171.71655 0l0 42.015747l-171.71655 0z" fill-rule="evenodd"/><path fill="#073763" d="m509.33853 57.15622l1.75 0l0 -0.140625q-0.15625 -0.421875 -0.25 -0.96875q-0.09375 -0.546875 -0.09375 -1.046875l0 -4.578125q0 -0.828125 -0.296875 -1.4375q-0.296875 -0.625 -0.8125 -1.046875q-0.53125 -0.40625 -1.25 -0.609375q-0.71875 -0.203125 -1.5625 -0.203125q-0.921875 0 -1.65625 0.25q-0.71875 0.25 -1.21875 0.65625q-0.5 0.421875 -0.78125 0.953125q-0.265625 0.515625 -0.265625 1.046875l1.6875 0q0 -0.3125 0.140625 -0.59375q0.15625 -0.28125 0.4375 -0.5q0.265625 -0.203125 0.65625 -0.328125q0.40625 -0.140625 0.90625 -0.140625q0.546875 0 0.96875 0.140625q0.4375 0.140625 0.734375 0.390625q0.296875 0.25 0.453125 0.609375q0.171875 0.34375 0.171875 0.796875l0 0.78125l-1.828125 0q-1.03125 0 -1.875 0.203125q-0.828125 0.1875 -1.421875 0.59375q-0.59375 0.40625 -0.921875 1.015625q-0.3125 0.609375 -0.3125 1.421875q0 0.625 0.234375 1.15625q0.25 0.53125 0.6875 0.90625q0.4375 0.40625 1.0625 0.640625q0.640625 0.21875 1.4375 0.21875q0.46875 0 0.890625 -0.109375q0.4375 -0.09375 0.828125 -0.265625q0.375 -0.171875 0.6875 -0.390625q0.3125 -0.234375 0.5625 -0.5q0.03125 0.3125 0.09375 0.609375q0.0625 0.28125 0.15625 0.46875zm-2.984375 -1.28125q-0.484375 0 -0.859375 -0.125q-0.375 -0.140625 -0.625 -0.359375q-0.234375 -0.21875 -0.359375 -0.53125q-0.125 -0.3125 -0.125 -0.671875q0 -0.390625 0.140625 -0.6875q0.140625 -0.296875 0.40625 -0.515625q0.390625 -0.3125 1.03125 -0.453125q0.65625 -0.15625 1.53125 -0.15625l1.5625 0l0 2.0q-0.140625 0.28125 -0.40625 0.5625q-0.25 0.265625 -0.59375 0.46875q-0.34375 0.203125 -0.78125 0.34375q-0.421875 0.125 -0.921875 0.125zm14.195587 1.28125l1.53125 0l0 -9.859375l-1.6875 0l0 7.078125q-0.140625 0.3125 -0.34375 0.578125q-0.203125 0.265625 -0.484375 0.46875q-0.328125 0.234375 -0.78125 0.375q-0.4375 0.125 -1.0 0.125q-0.484375 0 -0.859375 -0.125q-0.359375 -0.140625 -0.625 -0.453125q-0.25 -0.3125 -0.375 -0.828125q-0.125 -0.53125 -0.125 -1.34375l0 -5.875l-1.6875 0l0 5.859375q0 1.109375 0.234375 1.890625q0.25 0.78125 0.6875 1.296875q0.453125 0.515625 1.078125 0.765625q0.625 0.234375 1.40625 0.234375q0.96875 0 1.703125 -0.40625q0.734375 -0.40625 1.234375 -1.140625l0.09375 1.359375zm8.695557 -12.25l-1.703125 0l0 2.390625l-2.578125 0l0 1.3125l2.578125 0l0 5.34375q0 0.921875 0.234375 1.5625q0.25 0.640625 0.671875 1.046875q0.421875 0.40625 0.984375 0.59375q0.578125 0.1875 1.234375 0.1875q0.390625 0 0.78125 -0.046875q0.40625 -0.03125 0.75 -0.109375q0.359375 -0.0625 0.65625 -0.15625q0.296875 -0.09375 0.515625 -0.21875l-0.234375 -1.203125q-0.15625 0.046875 -0.40625 0.09375q-0.234375 0.046875 -0.515625 0.09375q-0.28125 0.046875 -0.578125 0.078125q-0.28125 0.03125 -0.546875 0.03125q-0.375 0 -0.71875 -0.09375q-0.328125 -0.09375 -0.578125 -0.3125q-0.265625 -0.21875 -0.40625 -0.59375q-0.140625 -0.375 -0.140625 -0.953125l0 -5.34375l3.75 0l0 -1.3125l-3.75 0l0 -2.390625zm8.883057 3.859375l0 -5.609375l-1.6875 0l0 14.0l1.6875 0l0 -7.15625q0.1875 -0.296875 0.421875 -0.53125q0.234375 -0.25 0.5 -0.421875q0.34375 -0.25 0.75 -0.375q0.421875 -0.125 0.875 -0.125q0.5625 -0.015625 0.984375 0.15625q0.421875 0.15625 0.703125 0.46875q0.265625 0.296875 0.40625 0.734375q0.140625 0.4375 0.140625 1.03125l0 6.21875l1.6875 0l0 -6.203125q0 -1.0 -0.25 -1.71875q-0.234375 -0.71875 -0.6875 -1.203125q-0.4375 -0.46875 -1.078125 -0.6875q-0.625 -0.21875 -1.40625 -0.21875q-0.59375 0 -1.125 0.171875q-0.515625 0.15625 -0.953125 0.484375q-0.265625 0.1875 -0.515625 0.4375q-0.25 0.25 -0.453125 0.546875zm13.867432 8.578125q1.4375 0 2.421875 -0.578125q0.984375 -0.578125 1.46875 -1.328125l-1.03125 -0.796875q-0.46875 0.59375 -1.171875 0.96875q-0.6875 0.359375 -1.59375 0.359375q-0.6875 0 -1.25 -0.25q-0.5625 -0.265625 -0.96875 -0.71875q-0.390625 -0.40625 -0.609375 -0.953125q-0.21875 -0.546875 -0.28125 -1.265625l0 -0.078125l7.03125 0l0 -0.75q0 -1.03125 -0.265625 -1.90625q-0.25 -0.890625 -0.78125 -1.546875q-0.53125 -0.640625 -1.328125 -1.0q-0.796875 -0.375 -1.859375 -0.375q-0.84375 0 -1.65625 0.34375q-0.796875 0.34375 -1.4375 0.984375q-0.625 0.65625 -1.015625 1.609375q-0.375 0.9375 -0.375 2.125l0 0.390625q0 1.03125 0.34375 1.90625q0.34375 0.875 0.96875 1.5q0.609375 0.640625 1.484375 1.0q0.875 0.359375 1.90625 0.359375zm-0.21875 -8.84375q0.65625 0 1.125 0.234375q0.46875 0.234375 0.765625 0.625q0.3125 0.375 0.484375 0.90625q0.171875 0.515625 0.171875 0.984375l0 0.078125l-5.296875 0q0.09375 -0.6875 0.34375 -1.203125q0.265625 -0.53125 0.625 -0.890625q0.359375 -0.359375 0.8125 -0.546875q0.453125 -0.1875 0.96875 -0.1875zm7.0549927 8.65625l1.6875 0l0 -7.0625q0.171875 -0.328125 0.40625 -0.59375q0.234375 -0.265625 0.515625 -0.453125q0.328125 -0.234375 0.71875 -0.359375q0.40625 -0.140625 0.875 -0.140625q0.546875 0 0.953125 0.125q0.421875 0.125 0.703125 0.40625q0.28125 0.296875 0.421875 0.75q0.15625 0.453125 0.15625 1.109375l0 6.21875l1.6875 0l0 -6.265625q0 -0.96875 -0.25 -1.6875q-0.234375 -0.71875 -0.6875 -1.1875q-0.4375 -0.453125 -1.078125 -0.671875q-0.625 -0.21875 -1.40625 -0.21875q-0.5625 0 -1.078125 0.171875q-0.515625 0.15625 -0.953125 0.4375q-0.296875 0.1875 -0.5625 0.453125q-0.25 0.265625 -0.46875 0.5625l-0.125 -1.453125l-1.515625 0l0 9.859375zm15.195557 -12.25l-1.703125 0l0 2.390625l-2.578125 0l0 1.3125l2.578125 0l0 5.34375q0 0.921875 0.234375 1.5625q0.25 0.640625 0.671875 1.046875q0.421875 0.40625 0.984375 0.59375q0.578125 0.1875 1.234375 0.1875q0.390625 0 0.78125 -0.046875q0.40625 -0.03125 0.75 -0.109375q0.359375 -0.0625 0.65625 -0.15625q0.296875 -0.09375 0.515625 -0.21875l-0.234375 -1.203125q-0.15625 0.046875 -0.40625 0.09375q-0.234375 0.046875 -0.515625 0.09375q-0.28125 0.046875 -0.578125 0.078125q-0.28125 0.03125 -0.546875 0.03125q-0.375 0 -0.71875 -0.09375q-0.328125 -0.09375 -0.578125 -0.3125q-0.265625 -0.21875 -0.40625 -0.59375q-0.140625 -0.375 -0.140625 -0.953125l0 -5.34375l3.75 0l0 -1.3125l-3.75 0l0 -2.390625zm7.4611816 2.390625l0 1.46875l3.359375 0l0 6.9375l-3.359375 0l0 1.453125l8.265625 0l0 -1.453125l-3.21875 0l0 -8.40625l-5.046875 0zm3.140625 -2.578125q0 0.40625 0.25 0.6875q0.25 0.265625 0.765625 0.265625q0.5 0 0.75 -0.265625q0.25 -0.28125 0.25 -0.6875q0 -0.234375 -0.078125 -0.421875q-0.0625 -0.1875 -0.203125 -0.328125q-0.125 -0.109375 -0.3125 -0.171875q-0.171875 -0.078125 -0.40625 -0.078125q-0.25 0 -0.4375 0.078125q-0.171875 0.0625 -0.296875 0.171875q-0.140625 0.140625 -0.21875 0.34375q-0.0625 0.1875 -0.0625 0.40625zm11.992432 11.25q-0.796875 0 -1.328125 -0.3125q-0.53125 -0.3125 -0.84375 -0.828125q-0.328125 -0.5 -0.46875 -1.125q-0.140625 -0.640625 -0.140625 -1.28125l0 -0.390625q0 -0.625 0.140625 -1.25q0.140625 -0.640625 0.46875 -1.15625q0.328125 -0.5 0.859375 -0.8125q0.53125 -0.3125 1.3125 -0.3125q0.515625 0 0.953125 0.171875q0.4375 0.171875 0.765625 0.484375q0.3125 0.296875 0.5 0.6875q0.1875 0.390625 0.203125 0.84375l1.59375 0q0 -0.75 -0.3125 -1.40625q-0.296875 -0.65625 -0.828125 -1.140625q-0.53125 -0.46875 -1.265625 -0.734375q-0.734375 -0.28125 -1.609375 -0.28125q-1.109375 0 -1.953125 0.40625q-0.84375 0.390625 -1.390625 1.0625q-0.5625 0.6875 -0.859375 1.578125q-0.28125 0.890625 -0.28125 1.859375l0 0.390625q0 0.984375 0.28125 1.875q0.296875 0.875 0.859375 1.5625q0.546875 0.671875 1.390625 1.078125q0.84375 0.40625 1.953125 0.40625q0.78125 0 1.5 -0.265625q0.71875 -0.28125 1.28125 -0.734375q0.5625 -0.4375 0.890625 -1.03125q0.328125 -0.609375 0.34375 -1.265625l-1.59375 0q-0.015625 0.40625 -0.21875 0.765625q-0.203125 0.34375 -0.546875 0.609375q-0.328125 0.265625 -0.765625 0.40625q-0.4375 0.140625 -0.890625 0.140625zm13.476868 1.1875l1.75 0l0 -0.140625q-0.15625 -0.421875 -0.25 -0.96875q-0.09375 -0.546875 -0.09375 -1.046875l0 -4.578125q0 -0.828125 -0.296875 -1.4375q-0.296875 -0.625 -0.8125 -1.046875q-0.53125 -0.40625 -1.25 -0.609375q-0.71875 -0.203125 -1.5625 -0.203125q-0.921875 0 -1.65625 0.25q-0.71875 0.25 -1.21875 0.65625q-0.5 0.421875 -0.78125 0.953125q-0.265625 0.515625 -0.265625 1.046875l1.6875 0q0 -0.3125 0.140625 -0.59375q0.15625 -0.28125 0.4375 -0.5q0.265625 -0.203125 0.65625 -0.328125q0.40625 -0.140625 0.90625 -0.140625q0.546875 0 0.96875 0.140625q0.4375 0.140625 0.734375 0.390625q0.296875 0.25 0.453125 0.609375q0.171875 0.34375 0.171875 0.796875l0 0.78125l-1.828125 0q-1.03125 0 -1.875 0.203125q-0.828125 0.1875 -1.421875 0.59375q-0.59375 0.40625 -0.921875 1.015625q-0.3125 0.609375 -0.3125 1.421875q0 0.625 0.234375 1.15625q0.25 0.53125 0.6875 0.90625q0.4375 0.40625 1.0625 0.640625q0.640625 0.21875 1.4375 0.21875q0.46875 0 0.890625 -0.109375q0.4375 -0.09375 0.828125 -0.265625q0.375 -0.171875 0.6875 -0.390625q0.3125 -0.234375 0.5625 -0.5q0.03125 0.3125 0.09375 0.609375q0.0625 0.28125 0.15625 0.46875zm-2.984375 -1.28125q-0.484375 0 -0.859375 -0.125q-0.375 -0.140625 -0.625 -0.359375q-0.234375 -0.21875 -0.359375 -0.53125q-0.125 -0.3125 -0.125 -0.671875q0 -0.390625 0.140625 -0.6875q0.140625 -0.296875 0.40625 -0.515625q0.390625 -0.3125 1.03125 -0.453125q0.65625 -0.15625 1.53125 -0.15625l1.5625 0l0 2.0q-0.140625 0.28125 -0.40625 0.5625q-0.25 0.265625 -0.59375 0.46875q-0.34375 0.203125 -0.78125 0.34375q-0.421875 0.125 -0.921875 0.125zm11.695557 -10.96875l-1.703125 0l0 2.390625l-2.578125 0l0 1.3125l2.578125 0l0 5.34375q0 0.921875 0.234375 1.5625q0.25 0.640625 0.671875 1.046875q0.421875 0.40625 0.984375 0.59375q0.578125 0.1875 1.234375 0.1875q0.390625 0 0.78125 -0.046875q0.40625 -0.03125 0.75 -0.109375q0.359375 -0.0625 0.65625 -0.15625q0.296875 -0.09375 0.515625 -0.21875l-0.234375 -1.203125q-0.15625 0.046875 -0.40625 0.09375q-0.234375 0.046875 -0.515625 0.09375q-0.28125 0.046875 -0.578125 0.078125q-0.28125 0.03125 -0.546875 0.03125q-0.375 0 -0.71875 -0.09375q-0.328125 -0.09375 -0.578125 -0.3125q-0.265625 -0.21875 -0.40625 -0.59375q-0.140625 -0.375 -0.140625 -0.953125l0 -5.34375l3.75 0l0 -1.3125l-3.75 0l0 -2.390625zm6.7268066 7.234375l0 0.203125q0 1.0625 0.3125 1.96875q0.3125 0.90625 0.890625 1.59375q0.578125 0.671875 1.40625 1.0625q0.84375 0.375 1.890625 0.375q1.03125 0 1.859375 -0.375q0.828125 -0.390625 1.40625 -1.0625q0.578125 -0.6875 0.890625 -1.59375q0.3125 -0.90625 0.3125 -1.96875l0 -0.203125q0 -1.0625 -0.3125 -1.984375q-0.3125 -0.921875 -0.890625 -1.59375q-0.578125 -0.671875 -1.421875 -1.046875q-0.828125 -0.390625 -1.875 -0.390625q-1.03125 0 -1.859375 0.390625q-0.828125 0.375 -1.40625 1.046875q-0.578125 0.671875 -0.890625 1.59375q-0.3125 0.921875 -0.3125 1.984375zm1.6875 0.203125l0 -0.203125q0 -0.71875 0.171875 -1.375q0.171875 -0.671875 0.53125 -1.171875q0.34375 -0.5 0.859375 -0.796875q0.515625 -0.296875 1.21875 -0.296875q0.703125 0 1.21875 0.296875q0.53125 0.296875 0.890625 0.796875q0.34375 0.5 0.515625 1.171875q0.1875 0.65625 0.1875 1.375l0 0.203125q0 0.71875 -0.171875 1.390625q-0.171875 0.65625 -0.515625 1.15625q-0.359375 0.5 -0.890625 0.796875q-0.515625 0.28125 -1.203125 0.28125q-0.703125 0 -1.234375 -0.28125q-0.53125 -0.296875 -0.875 -0.796875q-0.359375 -0.5 -0.53125 -1.15625q-0.171875 -0.671875 -0.171875 -1.390625zm16.445557 -5.21875q-1.078125 0 -1.921875 0.46875q-0.84375 0.46875 -1.4375 1.265625l-0.015625 -0.234375l-0.078125 -1.328125l-1.59375 0l0 9.859375l1.6875 0l0 -6.328125q0.171875 -0.453125 0.421875 -0.8125q0.25 -0.375 0.578125 -0.625q0.375 -0.296875 0.875 -0.4375q0.5 -0.15625 1.125 -0.15625q0.484375 0 0.921875 0.046875q0.453125 0.046875 0.9375 0.15625l0.234375 -1.640625q-0.265625 -0.109375 -0.765625 -0.171875q-0.5 -0.0625 -0.96875 -0.0625z" fill-rule="nonzero"/><path fill="#cfe2f3" d="m298.83466 30.236221l171.71652 0l0 42.015747l-171.71652 0z" fill-rule="evenodd"/><path fill="#073763" d="m347.35217 47.296844l0 1.46875l3.359375 0l0 6.9375l-3.359375 0l0 1.453125l8.265625 0l0 -1.453125l-3.21875 0l0 -8.40625l-5.046875 0zm3.140625 -2.578125q0 0.40625 0.25 0.6875q0.25 0.265625 0.765625 0.265625q0.5 0 0.75 -0.265625q0.25 -0.28125 0.25 -0.6875q0 -0.234375 -0.078125 -0.421875q-0.0625 -0.1875 -0.203125 -0.328125q-0.125 -0.109375 -0.3125 -0.171875q-0.171875 -0.078125 -0.40625 -0.078125q-0.25 0 -0.4375 0.078125q-0.171875 0.0625 -0.296875 0.171875q-0.140625 0.140625 -0.21875 0.34375q-0.0625 0.1875 -0.0625 0.40625zm7.7893066 12.4375l1.6875 0l0 -7.0625q0.171875 -0.328125 0.40625 -0.59375q0.234375 -0.265625 0.515625 -0.453125q0.328125 -0.234375 0.71875 -0.359375q0.40625 -0.140625 0.875 -0.140625q0.546875 0 0.953125 0.125q0.421875 0.125 0.703125 0.40625q0.28125 0.296875 0.421875 0.75q0.15625 0.453125 0.15625 1.109375l0 6.21875l1.6875 0l0 -6.265625q0 -0.96875 -0.25 -1.6875q-0.234375 -0.71875 -0.6875 -1.1875q-0.4375 -0.453125 -1.078125 -0.671875q-0.625 -0.21875 -1.40625 -0.21875q-0.5625 0 -1.078125 0.171875q-0.515625 0.15625 -0.953125 0.4375q-0.296875 0.1875 -0.5625 0.453125q-0.25 0.265625 -0.46875 0.5625l-0.125 -1.453125l-1.515625 0l0 9.859375zm10.883087 -5.015625l0 0.203125q0 1.046875 0.28125 1.96875q0.28125 0.90625 0.796875 1.59375q0.5 0.671875 1.21875 1.0625q0.734375 0.375 1.625 0.375q0.921875 0 1.59375 -0.3125q0.6875 -0.3125 1.1875 -0.90625l0.0625 1.03125l1.546875 0l0 -14.0l-1.6875 0l0 5.125q-0.46875 -0.578125 -1.140625 -0.859375q-0.65625 -0.296875 -1.546875 -0.296875q-0.890625 0 -1.625 0.375q-0.734375 0.359375 -1.234375 1.03125q-0.515625 0.65625 -0.796875 1.59375q-0.28125 0.921875 -0.28125 2.015625zm1.6875 0.203125l0 -0.203125q0 -0.71875 0.15625 -1.359375q0.15625 -0.65625 0.484375 -1.15625q0.3125 -0.5 0.8125 -0.78125q0.515625 -0.296875 1.21875 -0.296875q0.828125 0 1.375 0.390625q0.5625 0.390625 0.890625 0.984375l0 4.578125q-0.328125 0.640625 -0.890625 1.03125q-0.546875 0.375 -1.390625 0.375q-0.703125 0 -1.203125 -0.28125q-0.5 -0.296875 -0.8125 -0.78125q-0.328125 -0.5 -0.484375 -1.140625q-0.15625 -0.640625 -0.15625 -1.359375zm14.179932 5.0q1.4375 0 2.421875 -0.578125q0.984375 -0.578125 1.46875 -1.328125l-1.03125 -0.796875q-0.46875 0.59375 -1.171875 0.96875q-0.6875 0.359375 -1.59375 0.359375q-0.6875 0 -1.25 -0.25q-0.5625 -0.265625 -0.96875 -0.71875q-0.390625 -0.40625 -0.609375 -0.953125q-0.21875 -0.546875 -0.28125 -1.265625l0 -0.078125l7.03125 0l0 -0.75q0 -1.03125 -0.265625 -1.90625q-0.25 -0.890625 -0.78125 -1.546875q-0.53125 -0.640625 -1.328125 -1.0q-0.796875 -0.375 -1.859375 -0.375q-0.84375 0 -1.65625 0.34375q-0.796875 0.34375 -1.4375 0.984375q-0.625 0.65625 -1.015625 1.609375q-0.375 0.9375 -0.375 2.125l0 0.390625q0 1.03125 0.34375 1.90625q0.34375 0.875 0.96875 1.5q0.609375 0.640625 1.484375 1.0q0.875 0.359375 1.90625 0.359375zm-0.21875 -8.84375q0.65625 0 1.125 0.234375q0.46875 0.234375 0.765625 0.625q0.3125 0.375 0.484375 0.90625q0.171875 0.515625 0.171875 0.984375l0 0.078125l-5.296875 0q0.09375 -0.6875 0.34375 -1.203125q0.265625 -0.53125 0.625 -0.890625q0.359375 -0.359375 0.8125 -0.546875q0.453125 -0.1875 0.96875 -0.1875zm11.133087 2.453125l-2.609375 -3.65625l-1.9375 0l3.65625 4.875l-3.765625 4.984375l1.96875 0l2.71875 -3.75l2.734375 3.75l1.9375 0l-3.765625 -4.984375l3.671875 -4.875l-1.96875 0l-2.640625 3.65625zm11.476807 6.390625q1.4375 0 2.421875 -0.578125q0.984375 -0.578125 1.46875 -1.328125l-1.03125 -0.796875q-0.46875 0.59375 -1.171875 0.96875q-0.6875 0.359375 -1.59375 0.359375q-0.6875 0 -1.25 -0.25q-0.5625 -0.265625 -0.96875 -0.71875q-0.390625 -0.40625 -0.609375 -0.953125q-0.21875 -0.546875 -0.28125 -1.265625l0 -0.078125l7.03125 0l0 -0.75q0 -1.03125 -0.265625 -1.90625q-0.25 -0.890625 -0.78125 -1.546875q-0.53125 -0.640625 -1.328125 -1.0q-0.796875 -0.375 -1.859375 -0.375q-0.84375 0 -1.65625 0.34375q-0.796875 0.34375 -1.4375 0.984375q-0.625 0.65625 -1.015625 1.609375q-0.375 0.9375 -0.375 2.125l0 0.390625q0 1.03125 0.34375 1.90625q0.34375 0.875 0.96875 1.5q0.609375 0.640625 1.484375 1.0q0.875 0.359375 1.90625 0.359375zm-0.21875 -8.84375q0.65625 0 1.125 0.234375q0.46875 0.234375 0.765625 0.625q0.3125 0.375 0.484375 0.90625q0.171875 0.515625 0.171875 0.984375l0 0.078125l-5.296875 0q0.09375 -0.6875 0.34375 -1.203125q0.265625 -0.53125 0.625 -0.890625q0.359375 -0.359375 0.8125 -0.546875q0.453125 -0.1875 0.96875 -0.1875zm13.523712 -1.375q-1.078125 0 -1.921875 0.46875q-0.84375 0.46875 -1.4375 1.265625l-0.015625 -0.234375l-0.078125 -1.328125l-1.59375 0l0 9.859375l1.6875 0l0 -6.328125q0.171875 -0.453125 0.421875 -0.8125q0.25 -0.375 0.578125 -0.625q0.375 -0.296875 0.875 -0.4375q0.5 -0.15625 1.125 -0.15625q0.484375 0 0.921875 0.046875q0.453125 0.046875 0.9375 0.15625l0.234375 -1.640625q-0.265625 -0.109375 -0.765625 -0.171875q-0.5 -0.0625 -0.96875 -0.0625z" fill-rule="nonzero"/><path fill="#cfe2f3" d="m393.5118 89.07087l171.71652 0l0 42.01574l-171.71652 0z" fill-rule="evenodd"/><path fill="#073763" d="m444.27933 115.99087l1.703125 0l0 -8.546875l3.796875 0l0 -1.3125l-3.796875 0l0 -0.6875q0 -0.625 0.15625 -1.078125q0.15625 -0.46875 0.46875 -0.765625q0.296875 -0.28125 0.734375 -0.421875q0.4375 -0.140625 1.015625 -0.140625q0.5625 0 1.0625 0.09375q0.5 0.09375 0.875 0.21875l0.1875 -1.390625q-0.234375 -0.0625 -0.46875 -0.109375q-0.21875 -0.046875 -0.453125 -0.09375q-0.34375 -0.0625 -0.703125 -0.109375q-0.34375 -0.046875 -0.703125 -0.046875q-0.875 0 -1.59375 0.25q-0.703125 0.25 -1.203125 0.734375q-0.515625 0.484375 -0.796875 1.203125q-0.28125 0.703125 -0.28125 1.65625l0 0.6875l-2.703125 0l0 1.3125l2.703125 0l0 8.546875zm13.039337 0.1875q1.4375 0 2.421875 -0.578125q0.984375 -0.578125 1.46875 -1.328125l-1.03125 -0.796875q-0.46875 0.59375 -1.171875 0.96875q-0.6875 0.359375 -1.59375 0.359375q-0.6875 0 -1.25 -0.25q-0.5625 -0.265625 -0.96875 -0.71875q-0.390625 -0.40625 -0.609375 -0.953125q-0.21875 -0.546875 -0.28125 -1.265625l0 -0.078125l7.03125 0l0 -0.75q0 -1.03125 -0.265625 -1.90625q-0.25 -0.890625 -0.78125 -1.546875q-0.53125 -0.640625 -1.328125 -1.0q-0.796875 -0.375 -1.859375 -0.375q-0.84375 0 -1.65625 0.34375q-0.796875 0.34375 -1.4375 0.984375q-0.625 0.65625 -1.015625 1.609375q-0.375 0.9375 -0.375 2.125l0 0.390625q0 1.03125 0.34375 1.90625q0.34375 0.875 0.96875 1.5q0.609375 0.640625 1.484375 1.0q0.875 0.359375 1.90625 0.359375zm-0.21875 -8.84375q0.65625 0 1.125 0.234375q0.46875 0.234375 0.765625 0.625q0.3125 0.375 0.484375 0.90625q0.171875 0.515625 0.171875 0.984375l0 0.078125l-5.296875 0q0.09375 -0.6875 0.34375 -1.203125q0.265625 -0.53125 0.625 -0.890625q0.359375 -0.359375 0.8125 -0.546875q0.453125 -0.1875 0.96875 -0.1875zm11.054932 -3.59375l-1.703125 0l0 2.390625l-2.578125 0l0 1.3125l2.578125 0l0 5.34375q0 0.921875 0.234375 1.5625q0.25 0.640625 0.671875 1.046875q0.421875 0.40625 0.984375 0.59375q0.578125 0.1875 1.234375 0.1875q0.390625 0 0.78125 -0.046875q0.40625 -0.03125 0.75 -0.109375q0.359375 -0.0625 0.65625 -0.15625q0.296875 -0.09375 0.515625 -0.21875l-0.234375 -1.203125q-0.15625 0.046875 -0.40625 0.09375q-0.234375 0.046875 -0.515625 0.09375q-0.28125 0.046875 -0.578125 0.078125q-0.28125 0.03125 -0.546875 0.03125q-0.375 0 -0.71875 -0.09375q-0.328125 -0.09375 -0.578125 -0.3125q-0.265625 -0.21875 -0.40625 -0.59375q-0.140625 -0.375 -0.140625 -0.953125l0 -5.34375l3.75 0l0 -1.3125l-3.75 0l0 -2.390625zm11.398712 11.0625q-0.796875 0 -1.328125 -0.3125q-0.53125 -0.3125 -0.84375 -0.828125q-0.328125 -0.5 -0.46875 -1.125q-0.140625 -0.640625 -0.140625 -1.28125l0 -0.390625q0 -0.625 0.140625 -1.25q0.140625 -0.640625 0.46875 -1.15625q0.328125 -0.5 0.859375 -0.8125q0.53125 -0.3125 1.3125 -0.3125q0.515625 0 0.953125 0.171875q0.4375 0.171875 0.765625 0.484375q0.3125 0.296875 0.5 0.6875q0.1875 0.390625 0.203125 0.84375l1.59375 0q0 -0.75 -0.3125 -1.40625q-0.296875 -0.65625 -0.828125 -1.140625q-0.53125 -0.46875 -1.265625 -0.734375q-0.734375 -0.28125 -1.609375 -0.28125q-1.109375 0 -1.953125 0.40625q-0.84375 0.390625 -1.390625 1.0625q-0.5625 0.6875 -0.859375 1.578125q-0.28125 0.890625 -0.28125 1.859375l0 0.390625q0 0.984375 0.28125 1.875q0.296875 0.875 0.859375 1.5625q0.546875 0.671875 1.390625 1.078125q0.84375 0.40625 1.953125 0.40625q0.78125 0 1.5 -0.265625q0.71875 -0.28125 1.28125 -0.734375q0.5625 -0.4375 0.890625 -1.03125q0.328125 -0.609375 0.34375 -1.265625l-1.59375 0q-0.015625 0.40625 -0.21875 0.765625q-0.203125 0.34375 -0.546875 0.609375q-0.328125 0.265625 -0.765625 0.40625q-0.4375 0.140625 -0.890625 0.140625zm8.679932 -7.203125l0 -5.609375l-1.6875 0l0 14.0l1.6875 0l0 -7.15625q0.1875 -0.296875 0.421875 -0.53125q0.234375 -0.25 0.5 -0.421875q0.34375 -0.25 0.75 -0.375q0.421875 -0.125 0.875 -0.125q0.5625 -0.015625 0.984375 0.15625q0.421875 0.15625 0.703125 0.46875q0.265625 0.296875 0.40625 0.734375q0.140625 0.4375 0.140625 1.03125l0 6.21875l1.6875 0l0 -6.203125q0 -1.0 -0.25 -1.71875q-0.234375 -0.71875 -0.6875 -1.203125q-0.4375 -0.46875 -1.078125 -0.6875q-0.625 -0.21875 -1.40625 -0.21875q-0.59375 0 -1.125 0.171875q-0.515625 0.15625 -0.953125 0.484375q-0.265625 0.1875 -0.515625 0.4375q-0.25 0.25 -0.453125 0.546875zm13.867462 8.578125q1.4375 0 2.421875 -0.578125q0.984375 -0.578125 1.46875 -1.328125l-1.03125 -0.796875q-0.46875 0.59375 -1.171875 0.96875q-0.6875 0.359375 -1.59375 0.359375q-0.6875 0 -1.25 -0.25q-0.5625 -0.265625 -0.96875 -0.71875q-0.390625 -0.40625 -0.609375 -0.953125q-0.21875 -0.546875 -0.28125 -1.265625l0 -0.078125l7.03125 0l0 -0.75q0 -1.03125 -0.265625 -1.90625q-0.25 -0.890625 -0.78125 -1.546875q-0.53125 -0.640625 -1.328125 -1.0q-0.796875 -0.375 -1.859375 -0.375q-0.84375 0 -1.65625 0.34375q-0.796875 0.34375 -1.4375 0.984375q-0.625 0.65625 -1.015625 1.609375q-0.375 0.9375 -0.375 2.125l0 0.390625q0 1.03125 0.34375 1.90625q0.34375 0.875 0.96875 1.5q0.609375 0.640625 1.484375 1.0q0.875 0.359375 1.90625 0.359375zm-0.21875 -8.84375q0.65625 0 1.125 0.234375q0.46875 0.234375 0.765625 0.625q0.3125 0.375 0.484375 0.90625q0.171875 0.515625 0.171875 0.984375l0 0.078125l-5.296875 0q0.09375 -0.6875 0.34375 -1.203125q0.265625 -0.53125 0.625 -0.890625q0.359375 -0.359375 0.8125 -0.546875q0.453125 -0.1875 0.96875 -0.1875zm13.523682 -1.375q-1.078125 0 -1.921875 0.46875q-0.84375 0.46875 -1.4375 1.265625l-0.015625 -0.234375l-0.078125 -1.328125l-1.59375 0l0 9.859375l1.6875 0l0 -6.328125q0.171875 -0.453125 0.421875 -0.8125q0.25 -0.375 0.578125 -0.625q0.375 -0.296875 0.875 -0.4375q0.5 -0.15625 1.125 -0.15625q0.484375 0 0.921875 0.046875q0.453125 0.046875 0.9375 0.15625l0.234375 -1.640625q-0.265625 -0.109375 -0.765625 -0.171875q-0.5 -0.0625 -0.96875 -0.0625z" fill-rule="nonzero"/><path fill="#cfe2f3" d="m393.5118 147.90552l171.71652 0l0 42.015747l-171.71652 0z" fill-rule="evenodd"/><path fill="#073763" d="m441.4512 169.80989l0 0.203125q0 1.046875 0.28125 1.96875q0.28125 0.90625 0.796875 1.59375q0.5 0.671875 1.21875 1.0625q0.734375 0.375 1.625 0.375q0.921875 0 1.59375 -0.3125q0.6875 -0.3125 1.1875 -0.90625l0.0625 1.03125l1.546875 0l0 -14.0l-1.6875 0l0 5.125q-0.46875 -0.578125 -1.140625 -0.859375q-0.65625 -0.296875 -1.546875 -0.296875q-0.890625 0 -1.625 0.375q-0.734375 0.359375 -1.234375 1.03125q-0.515625 0.65625 -0.796875 1.59375q-0.28125 0.921875 -0.28125 2.015625zm1.6875 0.203125l0 -0.203125q0 -0.71875 0.15625 -1.359375q0.15625 -0.65625 0.484375 -1.15625q0.3125 -0.5 0.8125 -0.78125q0.515625 -0.296875 1.21875 -0.296875q0.828125 0 1.375 0.390625q0.5625 0.390625 0.890625 0.984375l0 4.578125q-0.328125 0.640625 -0.890625 1.03125q-0.546875 0.375 -1.390625 0.375q-0.703125 0 -1.203125 -0.28125q-0.5 -0.296875 -0.8125 -0.78125q-0.328125 -0.5 -0.484375 -1.140625q-0.15625 -0.640625 -0.15625 -1.359375zm14.179962 5.0q1.4375 0 2.421875 -0.578125q0.984375 -0.578125 1.46875 -1.328125l-1.03125 -0.796875q-0.46875 0.59375 -1.171875 0.96875q-0.6875 0.359375 -1.59375 0.359375q-0.6875 0 -1.25 -0.25q-0.5625 -0.265625 -0.96875 -0.71875q-0.390625 -0.40625 -0.609375 -0.953125q-0.21875 -0.546875 -0.28125 -1.265625l0 -0.078125l7.03125 0l0 -0.75q0 -1.03125 -0.265625 -1.90625q-0.25 -0.890625 -0.78125 -1.546875q-0.53125 -0.640625 -1.328125 -1.0q-0.796875 -0.375 -1.859375 -0.375q-0.84375 0 -1.65625 0.34375q-0.796875 0.34375 -1.4375 0.984375q-0.625 0.65625 -1.015625 1.609375q-0.375 0.9375 -0.375 2.125l0 0.390625q0 1.03125 0.34375 1.90625q0.34375 0.875 0.96875 1.5q0.609375 0.640625 1.484375 1.0q0.875 0.359375 1.90625 0.359375zm-0.21875 -8.84375q0.65625 0 1.125 0.234375q0.46875 0.234375 0.765625 0.625q0.3125 0.375 0.484375 0.90625q0.171875 0.515625 0.171875 0.984375l0 0.078125l-5.296875 0q0.09375 -0.6875 0.34375 -1.203125q0.265625 -0.53125 0.625 -0.890625q0.359375 -0.359375 0.8125 -0.546875q0.453125 -0.1875 0.96875 -0.1875zm11.258057 7.46875q-0.796875 0 -1.328125 -0.3125q-0.53125 -0.3125 -0.84375 -0.828125q-0.328125 -0.5 -0.46875 -1.125q-0.140625 -0.640625 -0.140625 -1.28125l0 -0.390625q0 -0.625 0.140625 -1.25q0.140625 -0.640625 0.46875 -1.15625q0.328125 -0.5 0.859375 -0.8125q0.53125 -0.3125 1.3125 -0.3125q0.515625 0 0.953125 0.171875q0.4375 0.171875 0.765625 0.484375q0.3125 0.296875 0.5 0.6875q0.1875 0.390625 0.203125 0.84375l1.59375 0q0 -0.75 -0.3125 -1.40625q-0.296875 -0.65625 -0.828125 -1.140625q-0.53125 -0.46875 -1.265625 -0.734375q-0.734375 -0.28125 -1.609375 -0.28125q-1.109375 0 -1.953125 0.40625q-0.84375 0.390625 -1.390625 1.0625q-0.5625 0.6875 -0.859375 1.578125q-0.28125 0.890625 -0.28125 1.859375l0 0.390625q0 0.984375 0.28125 1.875q0.296875 0.875 0.859375 1.5625q0.546875 0.671875 1.390625 1.078125q0.84375 0.40625 1.953125 0.40625q0.78125 0 1.5 -0.265625q0.71875 -0.28125 1.28125 -0.734375q0.5625 -0.4375 0.890625 -1.03125q0.328125 -0.609375 0.34375 -1.265625l-1.59375 0q-0.015625 0.40625 -0.21875 0.765625q-0.203125 0.34375 -0.546875 0.609375q-0.328125 0.265625 -0.765625 0.40625q-0.4375 0.140625 -0.890625 0.140625zm7.258087 -8.671875l0 1.46875l3.359375 0l0 6.9375l-3.359375 0l0 1.453125l8.265625 0l0 -1.453125l-3.21875 0l0 -8.40625l-5.046875 0zm3.140625 -2.578125q0 0.40625 0.25 0.6875q0.25 0.265625 0.765625 0.265625q0.5 0 0.75 -0.265625q0.25 -0.28125 0.25 -0.6875q0 -0.234375 -0.078125 -0.421875q-0.0625 -0.1875 -0.203125 -0.328125q-0.125 -0.109375 -0.3125 -0.171875q-0.171875 -0.078125 -0.40625 -0.078125q-0.25 0 -0.4375 0.078125q-0.171875 0.0625 -0.296875 0.171875q-0.140625 0.140625 -0.21875 0.34375q-0.0625 0.1875 -0.0625 0.40625zm7.4768066 7.421875l0 0.203125q0 1.046875 0.28125 1.96875q0.28125 0.90625 0.796875 1.59375q0.5 0.671875 1.21875 1.0625q0.734375 0.375 1.625 0.375q0.921875 0 1.59375 -0.3125q0.6875 -0.3125 1.1875 -0.90625l0.0625 1.03125l1.546875 0l0 -14.0l-1.6875 0l0 5.125q-0.46875 -0.578125 -1.140625 -0.859375q-0.65625 -0.296875 -1.546875 -0.296875q-0.890625 0 -1.625 0.375q-0.734375 0.359375 -1.234375 1.03125q-0.515625 0.65625 -0.796875 1.59375q-0.28125 0.921875 -0.28125 2.015625zm1.6875 0.203125l0 -0.203125q0 -0.71875 0.15625 -1.359375q0.15625 -0.65625 0.484375 -1.15625q0.3125 -0.5 0.8125 -0.78125q0.515625 -0.296875 1.21875 -0.296875q0.828125 0 1.375 0.390625q0.5625 0.390625 0.890625 0.984375l0 4.578125q-0.328125 0.640625 -0.890625 1.03125q-0.546875 0.375 -1.390625 0.375q-0.703125 0 -1.203125 -0.28125q-0.5 -0.296875 -0.8125 -0.78125q-0.328125 -0.5 -0.484375 -1.140625q-0.15625 -0.640625 -0.15625 -1.359375zm14.179962 5.0q1.4375 0 2.421875 -0.578125q0.984375 -0.578125 1.46875 -1.328125l-1.03125 -0.796875q-0.46875 0.59375 -1.171875 0.96875q-0.6875 0.359375 -1.59375 0.359375q-0.6875 0 -1.25 -0.25q-0.5625 -0.265625 -0.96875 -0.71875q-0.390625 -0.40625 -0.609375 -0.953125q-0.21875 -0.546875 -0.28125 -1.265625l0 -0.078125l7.03125 0l0 -0.75q0 -1.03125 -0.265625 -1.90625q-0.25 -0.890625 -0.78125 -1.546875q-0.53125 -0.640625 -1.328125 -1.0q-0.796875 -0.375 -1.859375 -0.375q-0.84375 0 -1.65625 0.34375q-0.796875 0.34375 -1.4375 0.984375q-0.625 0.65625 -1.015625 1.609375q-0.375 0.9375 -0.375 2.125l0 0.390625q0 1.03125 0.34375 1.90625q0.34375 0.875 0.96875 1.5q0.609375 0.640625 1.484375 1.0q0.875 0.359375 1.90625 0.359375zm-0.21875 -8.84375q0.65625 0 1.125 0.234375q0.46875 0.234375 0.765625 0.625q0.3125 0.375 0.484375 0.90625q0.171875 0.515625 0.171875 0.984375l0 0.078125l-5.296875 0q0.09375 -0.6875 0.34375 -1.203125q0.265625 -0.53125 0.625 -0.890625q0.359375 -0.359375 0.8125 -0.546875q0.453125 -0.1875 0.96875 -0.1875zm13.523682 -1.375q-1.078125 0 -1.921875 0.46875q-0.84375 0.46875 -1.4375 1.265625l-0.015625 -0.234375l-0.078125 -1.328125l-1.59375 0l0 9.859375l1.6875 0l0 -6.328125q0.171875 -0.453125 0.421875 -0.8125q0.25 -0.375 0.578125 -0.625q0.375 -0.296875 0.875 -0.4375q0.5 -0.15625 1.125 -0.15625q0.484375 0 0.921875 0.046875q0.453125 0.046875 0.9375 0.15625l0.234375 -1.640625q-0.265625 -0.109375 -0.765625 -0.171875q-0.5 -0.0625 -0.96875 -0.0625z" fill-rule="nonzero"/><path fill="#cfe2f3" d="m393.5118 206.74016l171.71652 0l0 200.37794l-171.71652 0z" fill-rule="evenodd"/><path fill="#073763" d="m434.77127 232.47266q-0.796875 0 -1.328125 -0.3125q-0.53125 -0.3125 -0.84375 -0.828125q-0.328125 -0.5 -0.46875 -1.125q-0.140625 -0.640625 -0.140625 -1.28125l0 -0.390625q0 -0.625 0.140625 -1.25q0.140625 -0.640625 0.46875 -1.15625q0.328125 -0.5 0.859375 -0.8125q0.53125 -0.3125 1.3125 -0.3125q0.515625 0 0.953125 0.171875q0.4375 0.171875 0.765625 0.484375q0.3125 0.296875 0.5 0.6875q0.1875 0.390625 0.203125 0.84375l1.59375 0q0 -0.75 -0.3125 -1.40625q-0.296875 -0.65625 -0.828125 -1.140625q-0.53125 -0.46875 -1.265625 -0.734375q-0.734375 -0.28125 -1.609375 -0.28125q-1.109375 0 -1.953125 0.40625q-0.84375 0.390625 -1.390625 1.0625q-0.5625 0.6875 -0.859375 1.578125q-0.28125 0.890625 -0.28125 1.859375l0 0.390625q0 0.984375 0.28125 1.875q0.296875 0.875 0.859375 1.5625q0.546875 0.671875 1.390625 1.078125q0.84375 0.40625 1.953125 0.40625q0.78125 0 1.5 -0.265625q0.71875 -0.28125 1.28125 -0.734375q0.5625 -0.4375 0.890625 -1.03125q0.328125 -0.609375 0.34375 -1.265625l-1.59375 0q-0.015625 0.40625 -0.21875 0.765625q-0.203125 0.34375 -0.546875 0.609375q-0.328125 0.265625 -0.765625 0.40625q-0.4375 0.140625 -0.890625 0.140625zm6.5236816 -3.828125l0 0.203125q0 1.0625 0.3125 1.96875q0.3125 0.90625 0.890625 1.59375q0.578125 0.671875 1.40625 1.0625q0.84375 0.375 1.890625 0.375q1.03125 0 1.859375 -0.375q0.828125 -0.390625 1.40625 -1.0625q0.578125 -0.6875 0.890625 -1.59375q0.3125 -0.90625 0.3125 -1.96875l0 -0.203125q0 -1.0625 -0.3125 -1.984375q-0.3125 -0.921875 -0.890625 -1.59375q-0.578125 -0.671875 -1.421875 -1.046875q-0.828125 -0.390625 -1.875 -0.390625q-1.03125 0 -1.859375 0.390625q-0.828125 0.375 -1.40625 1.046875q-0.578125 0.671875 -0.890625 1.59375q-0.3125 0.921875 -0.3125 1.984375zm1.6875 0.203125l0 -0.203125q0 -0.71875 0.171875 -1.375q0.171875 -0.671875 0.53125 -1.171875q0.34375 -0.5 0.859375 -0.796875q0.515625 -0.296875 1.21875 -0.296875q0.703125 0 1.21875 0.296875q0.53125 0.296875 0.890625 0.796875q0.34375 0.5 0.515625 1.171875q0.1875 0.65625 0.1875 1.375l0 0.203125q0 0.71875 -0.171875 1.390625q-0.171875 0.65625 -0.515625 1.15625q-0.359375 0.5 -0.890625 0.796875q-0.515625 0.28125 -1.203125 0.28125q-0.703125 0 -1.234375 -0.28125q-0.53125 -0.296875 -0.875 -0.796875q-0.359375 -0.5 -0.53125 -1.15625q-0.171875 -0.671875 -0.171875 -1.390625zm10.242462 -9.1875l0 1.46875l3.359375 0l0 11.078125l-3.359375 0l0 1.453125l8.265625 0l0 -1.453125l-3.21875 0l0 -12.546875l-5.046875 0zm11.195557 0l0 1.46875l3.359375 0l0 11.078125l-3.359375 0l0 1.453125l8.265625 0l0 -1.453125l-3.21875 0l0 -12.546875l-5.046875 0zm15.289337 14.1875q1.4375 0 2.421875 -0.578125q0.984375 -0.578125 1.46875 -1.328125l-1.03125 -0.796875q-0.46875 0.59375 -1.171875 0.96875q-0.6875 0.359375 -1.59375 0.359375q-0.6875 0 -1.25 -0.25q-0.5625 -0.265625 -0.96875 -0.71875q-0.390625 -0.40625 -0.609375 -0.953125q-0.21875 -0.546875 -0.28125 -1.265625l0 -0.078125l7.03125 0l0 -0.75q0 -1.03125 -0.265625 -1.90625q-0.25 -0.890625 -0.78125 -1.546875q-0.53125 -0.640625 -1.328125 -1.0q-0.796875 -0.375 -1.859375 -0.375q-0.84375 0 -1.65625 0.34375q-0.796875 0.34375 -1.4375 0.984375q-0.625 0.65625 -1.015625 1.609375q-0.375 0.9375 -0.375 2.125l0 0.390625q0 1.03125 0.34375 1.90625q0.34375 0.875 0.96875 1.5q0.609375 0.640625 1.484375 1.0q0.875 0.359375 1.90625 0.359375zm-0.21875 -8.84375q0.65625 0 1.125 0.234375q0.46875 0.234375 0.765625 0.625q0.3125 0.375 0.484375 0.90625q0.171875 0.515625 0.171875 0.984375l0 0.078125l-5.296875 0q0.09375 -0.6875 0.34375 -1.203125q0.265625 -0.53125 0.625 -0.890625q0.359375 -0.359375 0.8125 -0.546875q0.453125 -0.1875 0.96875 -0.1875zm11.258057 7.46875q-0.796875 0 -1.328125 -0.3125q-0.53125 -0.3125 -0.84375 -0.828125q-0.328125 -0.5 -0.46875 -1.125q-0.140625 -0.640625 -0.140625 -1.28125l0 -0.390625q0 -0.625 0.140625 -1.25q0.140625 -0.640625 0.46875 -1.15625q0.328125 -0.5 0.859375 -0.8125q0.53125 -0.3125 1.3125 -0.3125q0.515625 0 0.953125 0.171875q0.4375 0.171875 0.765625 0.484375q0.3125 0.296875 0.5 0.6875q0.1875 0.390625 0.203125 0.84375l1.59375 0q0 -0.75 -0.3125 -1.40625q-0.296875 -0.65625 -0.828125 -1.140625q-0.53125 -0.46875 -1.265625 -0.734375q-0.734375 -0.28125 -1.609375 -0.28125q-1.109375 0 -1.953125 0.40625q-0.84375 0.390625 -1.390625 1.0625q-0.5625 0.6875 -0.859375 1.578125q-0.28125 0.890625 -0.28125 1.859375l0 0.390625q0 0.984375 0.28125 1.875q0.296875 0.875 0.859375 1.5625q0.546875 0.671875 1.390625 1.078125q0.84375 0.40625 1.953125 0.40625q0.78125 0 1.5 -0.265625q0.71875 -0.28125 1.28125 -0.734375q0.5625 -0.4375 0.890625 -1.03125q0.328125 -0.609375 0.34375 -1.265625l-1.59375 0q-0.015625 0.40625 -0.21875 0.765625q-0.203125 0.34375 -0.546875 0.609375q-0.328125 0.265625 -0.765625 0.40625q-0.4375 0.140625 -0.890625 0.140625zm10.992462 -11.0625l-1.703125 0l0 2.390625l-2.578125 0l0 1.3125l2.578125 0l0 5.34375q0 0.921875 0.234375 1.5625q0.25 0.640625 0.671875 1.046875q0.421875 0.40625 0.984375 0.59375q0.578125 0.1875 1.234375 0.1875q0.390625 0 0.78125 -0.046875q0.40625 -0.03125 0.75 -0.109375q0.359375 -0.0625 0.65625 -0.15625q0.296875 -0.09375 0.515625 -0.21875l-0.234375 -1.203125q-0.15625 0.046875 -0.40625 0.09375q-0.234375 0.046875 -0.515625 0.09375q-0.28125 0.046875 -0.578125 0.078125q-0.28125 0.03125 -0.546875 0.03125q-0.375 0 -0.71875 -0.09375q-0.328125 -0.09375 -0.578125 -0.3125q-0.265625 -0.21875 -0.40625 -0.59375q-0.140625 -0.375 -0.140625 -0.953125l0 -5.34375l3.75 0l0 -1.3125l-3.75 0l0 -2.390625zm6.7268066 7.234375l0 0.203125q0 1.0625 0.3125 1.96875q0.3125 0.90625 0.890625 1.59375q0.578125 0.671875 1.40625 1.0625q0.84375 0.375 1.890625 0.375q1.03125 0 1.859375 -0.375q0.828125 -0.390625 1.40625 -1.0625q0.578125 -0.6875 0.890625 -1.59375q0.3125 -0.90625 0.3125 -1.96875l0 -0.203125q0 -1.0625 -0.3125 -1.984375q-0.3125 -0.921875 -0.890625 -1.59375q-0.578125 -0.671875 -1.421875 -1.046875q-0.828125 -0.390625 -1.875 -0.390625q-1.03125 0 -1.859375 0.390625q-0.828125 0.375 -1.40625 1.046875q-0.578125 0.671875 -0.890625 1.59375q-0.3125 0.921875 -0.3125 1.984375zm1.6875 0.203125l0 -0.203125q0 -0.71875 0.171875 -1.375q0.171875 -0.671875 0.53125 -1.171875q0.34375 -0.5 0.859375 -0.796875q0.515625 -0.296875 1.21875 -0.296875q0.703125 0 1.21875 0.296875q0.53125 0.296875 0.890625 0.796875q0.34375 0.5 0.515625 1.171875q0.1875 0.65625 0.1875 1.375l0 0.203125q0 0.71875 -0.171875 1.390625q-0.171875 0.65625 -0.515625 1.15625q-0.359375 0.5 -0.890625 0.796875q-0.515625 0.28125 -1.203125 0.28125q-0.703125 0 -1.234375 -0.28125q-0.53125 -0.296875 -0.875 -0.796875q-0.359375 -0.5 -0.53125 -1.15625q-0.171875 -0.671875 -0.171875 -1.390625zm16.445557 -5.21875q-1.078125 0 -1.921875 0.46875q-0.84375 0.46875 -1.4375 1.265625l-0.015625 -0.234375l-0.078125 -1.328125l-1.59375 0l0 9.859375l1.6875 0l0 -6.328125q0.171875 -0.453125 0.421875 -0.8125q0.25 -0.375 0.578125 -0.625q0.375 -0.296875 0.875 -0.4375q0.5 -0.15625 1.125 -0.15625q0.484375 0 0.921875 0.046875q0.453125 0.046875 0.9375 0.15625l0.234375 -1.640625q-0.265625 -0.109375 -0.765625 -0.171875q-0.5 -0.0625 -0.96875 -0.0625z" fill-rule="nonzero"/><path fill="#9fc5e8" d="m404.40945 251.02362l151.18112 0l0 42.015747l-151.18112 0z" fill-rule="evenodd"/><path fill="#1c4587" d="m425.28778 272.928l0 0.203125q0 1.046875 0.28125 1.96875q0.28125 0.90625 0.796875 1.59375q0.5 0.671875 1.21875 1.0625q0.734375 0.375 1.625 0.375q0.921875 0 1.59375 -0.3125q0.6875 -0.3125 1.1875 -0.90625l0.0625 1.03125l1.546875 0l0 -14.0l-1.6875 0l0 5.125q-0.46875 -0.578125 -1.140625 -0.859375q-0.65625 -0.296875 -1.546875 -0.296875q-0.890625 0 -1.625 0.375q-0.734375 0.359375 -1.234375 1.03125q-0.515625 0.65625 -0.796875 1.59375q-0.28125 0.921875 -0.28125 2.015625zm1.6875 0.203125l0 -0.203125q0 -0.71875 0.15625 -1.359375q0.15625 -0.65625 0.484375 -1.15625q0.3125 -0.5 0.8125 -0.78125q0.515625 -0.296875 1.21875 -0.296875q0.828125 0 1.375 0.390625q0.5625 0.390625 0.890625 0.984375l0 4.578125q-0.328125 0.640625 -0.890625 1.03125q-0.546875 0.375 -1.390625 0.375q-0.703125 0 -1.203125 -0.28125q-0.5 -0.296875 -0.8125 -0.78125q-0.328125 -0.5 -0.484375 -1.140625q-0.15625 -0.640625 -0.15625 -1.359375zm9.351807 -0.203125l0 0.203125q0 1.0625 0.3125 1.96875q0.3125 0.90625 0.890625 1.59375q0.578125 0.671875 1.40625 1.0625q0.84375 0.375 1.890625 0.375q1.03125 0 1.859375 -0.375q0.828125 -0.390625 1.40625 -1.0625q0.578125 -0.6875 0.890625 -1.59375q0.3125 -0.90625 0.3125 -1.96875l0 -0.203125q0 -1.0625 -0.3125 -1.984375q-0.3125 -0.921875 -0.890625 -1.59375q-0.578125 -0.671875 -1.421875 -1.046875q-0.828125 -0.390625 -1.875 -0.390625q-1.03125 0 -1.859375 0.390625q-0.828125 0.375 -1.40625 1.046875q-0.578125 0.671875 -0.890625 1.59375q-0.3125 0.921875 -0.3125 1.984375zm1.6875 0.203125l0 -0.203125q0 -0.71875 0.171875 -1.375q0.171875 -0.671875 0.53125 -1.171875q0.34375 -0.5 0.859375 -0.796875q0.515625 -0.296875 1.21875 -0.296875q0.703125 0 1.21875 0.296875q0.53125 0.296875 0.890625 0.796875q0.34375 0.5 0.515625 1.171875q0.1875 0.65625 0.1875 1.375l0 0.203125q0 0.71875 -0.171875 1.390625q-0.171875 0.65625 -0.515625 1.15625q-0.359375 0.5 -0.890625 0.796875q-0.515625 0.28125 -1.203125 0.28125q-0.703125 0 -1.234375 -0.28125q-0.53125 -0.296875 -0.875 -0.796875q-0.359375 -0.5 -0.53125 -1.15625q-0.171875 -0.671875 -0.171875 -1.390625zm10.929962 4.8125l1.328125 0l1.53125 -6.046875l0.234375 -1.515625l0.265625 1.515625l1.53125 6.046875l1.328125 0l2.09375 -9.859375l-1.484375 0l-1.09375 6.28125l-0.25 1.5625l-0.265625 -1.5625l-1.5625 -6.28125l-1.09375 0l-1.5625 6.28125l-0.25 1.421875l-0.203125 -1.421875l-1.140625 -6.28125l-1.5 0l2.09375 9.859375zm10.242432 0l1.6875 0l0 -7.0625q0.171875 -0.328125 0.40625 -0.59375q0.234375 -0.265625 0.515625 -0.453125q0.328125 -0.234375 0.71875 -0.359375q0.40625 -0.140625 0.875 -0.140625q0.546875 0 0.953125 0.125q0.421875 0.125 0.703125 0.40625q0.28125 0.296875 0.421875 0.75q0.15625 0.453125 0.15625 1.109375l0 6.21875l1.6875 0l0 -6.265625q0 -0.96875 -0.25 -1.6875q-0.234375 -0.71875 -0.6875 -1.1875q-0.4375 -0.453125 -1.078125 -0.671875q-0.625 -0.21875 -1.40625 -0.21875q-0.5625 0 -1.078125 0.171875q-0.515625 0.15625 -0.953125 0.4375q-0.296875 0.1875 -0.5625 0.453125q-0.25 0.265625 -0.46875 0.5625l-0.125 -1.453125l-1.515625 0l0 9.859375zm11.461212 -14.0l0 1.46875l3.359375 0l0 11.078125l-3.359375 0l0 1.453125l8.265625 0l0 -1.453125l-3.21875 0l0 -12.546875l-5.046875 0zm10.461182 8.984375l0 0.203125q0 1.0625 0.3125 1.96875q0.3125 0.90625 0.890625 1.59375q0.578125 0.671875 1.40625 1.0625q0.84375 0.375 1.890625 0.375q1.03125 0 1.859375 -0.375q0.828125 -0.390625 1.40625 -1.0625q0.578125 -0.6875 0.890625 -1.59375q0.3125 -0.90625 0.3125 -1.96875l0 -0.203125q0 -1.0625 -0.3125 -1.984375q-0.3125 -0.921875 -0.890625 -1.59375q-0.578125 -0.671875 -1.421875 -1.046875q-0.828125 -0.390625 -1.875 -0.390625q-1.03125 0 -1.859375 0.390625q-0.828125 0.375 -1.40625 1.046875q-0.578125 0.671875 -0.890625 1.59375q-0.3125 0.921875 -0.3125 1.984375zm1.6875 0.203125l0 -0.203125q0 -0.71875 0.171875 -1.375q0.171875 -0.671875 0.53125 -1.171875q0.34375 -0.5 0.859375 -0.796875q0.515625 -0.296875 1.21875 -0.296875q0.703125 0 1.21875 0.296875q0.53125 0.296875 0.890625 0.796875q0.34375 0.5 0.515625 1.171875q0.1875 0.65625 0.1875 1.375l0 0.203125q0 0.71875 -0.171875 1.390625q-0.171875 0.65625 -0.515625 1.15625q-0.359375 0.5 -0.890625 0.796875q-0.515625 0.28125 -1.203125 0.28125q-0.703125 0 -1.234375 -0.28125q-0.53125 -0.296875 -0.875 -0.796875q-0.359375 -0.5 -0.53125 -1.15625q-0.171875 -0.671875 -0.171875 -1.390625zm16.461212 4.8125l1.75 0l0 -0.140625q-0.15625 -0.421875 -0.25 -0.96875q-0.09375 -0.546875 -0.09375 -1.046875l0 -4.578125q0 -0.828125 -0.296875 -1.4375q-0.296875 -0.625 -0.8125 -1.046875q-0.53125 -0.40625 -1.25 -0.609375q-0.71875 -0.203125 -1.5625 -0.203125q-0.921875 0 -1.65625 0.25q-0.71875 0.25 -1.21875 0.65625q-0.5 0.421875 -0.78125 0.953125q-0.265625 0.515625 -0.265625 1.046875l1.6875 0q0 -0.3125 0.140625 -0.59375q0.15625 -0.28125 0.4375 -0.5q0.265625 -0.203125 0.65625 -0.328125q0.40625 -0.140625 0.90625 -0.140625q0.546875 0 0.96875 0.140625q0.4375 0.140625 0.734375 0.390625q0.296875 0.25 0.453125 0.609375q0.171875 0.34375 0.171875 0.796875l0 0.78125l-1.828125 0q-1.03125 0 -1.875 0.203125q-0.828125 0.1875 -1.421875 0.59375q-0.59375 0.40625 -0.921875 1.015625q-0.3125 0.609375 -0.3125 1.421875q0 0.625 0.234375 1.15625q0.25 0.53125 0.6875 0.90625q0.4375 0.40625 1.0625 0.640625q0.640625 0.21875 1.4375 0.21875q0.46875 0 0.890625 -0.109375q0.4375 -0.09375 0.828125 -0.265625q0.375 -0.171875 0.6875 -0.390625q0.3125 -0.234375 0.5625 -0.5q0.03125 0.3125 0.09375 0.609375q0.0625 0.28125 0.15625 0.46875zm-2.984375 -1.28125q-0.484375 0 -0.859375 -0.125q-0.375 -0.140625 -0.625 -0.359375q-0.234375 -0.21875 -0.359375 -0.53125q-0.125 -0.3125 -0.125 -0.671875q0 -0.390625 0.140625 -0.6875q0.140625 -0.296875 0.40625 -0.515625q0.390625 -0.3125 1.03125 -0.453125q0.65625 -0.15625 1.53125 -0.15625l1.5625 0l0 2.0q-0.140625 0.28125 -0.40625 0.5625q-0.25 0.265625 -0.59375 0.46875q-0.34375 0.203125 -0.78125 0.34375q-0.421875 0.125 -0.921875 0.125zm7.3830566 -3.734375l0 0.203125q0 1.046875 0.28125 1.96875q0.28125 0.90625 0.796875 1.59375q0.5 0.671875 1.21875 1.0625q0.734375 0.375 1.625 0.375q0.921875 0 1.59375 -0.3125q0.6875 -0.3125 1.1875 -0.90625l0.0625 1.03125l1.546875 0l0 -14.0l-1.6875 0l0 5.125q-0.46875 -0.578125 -1.140625 -0.859375q-0.65625 -0.296875 -1.546875 -0.296875q-0.890625 0 -1.625 0.375q-0.734375 0.359375 -1.234375 1.03125q-0.515625 0.65625 -0.796875 1.59375q-0.28125 0.921875 -0.28125 2.015625zm1.6875 0.203125l0 -0.203125q0 -0.71875 0.15625 -1.359375q0.15625 -0.65625 0.484375 -1.15625q0.3125 -0.5 0.8125 -0.78125q0.515625 -0.296875 1.21875 -0.296875q0.828125 0 1.375 0.390625q0.5625 0.390625 0.890625 0.984375l0 4.578125q-0.328125 0.640625 -0.890625 1.03125q-0.546875 0.375 -1.390625 0.375q-0.703125 0 -1.203125 -0.28125q-0.5 -0.296875 -0.8125 -0.78125q-0.328125 -0.5 -0.484375 -1.140625q-0.15625 -0.640625 -0.15625 -1.359375zm14.179962 5.0q1.4375 0 2.421875 -0.578125q0.984375 -0.578125 1.46875 -1.328125l-1.03125 -0.796875q-0.46875 0.59375 -1.171875 0.96875q-0.6875 0.359375 -1.59375 0.359375q-0.6875 0 -1.25 -0.25q-0.5625 -0.265625 -0.96875 -0.71875q-0.390625 -0.40625 -0.609375 -0.953125q-0.21875 -0.546875 -0.28125 -1.265625l0 -0.078125l7.03125 0l0 -0.75q0 -1.03125 -0.265625 -1.90625q-0.25 -0.890625 -0.78125 -1.546875q-0.53125 -0.640625 -1.328125 -1.0q-0.796875 -0.375 -1.859375 -0.375q-0.84375 0 -1.65625 0.34375q-0.796875 0.34375 -1.4375 0.984375q-0.625 0.65625 -1.015625 1.609375q-0.375 0.9375 -0.375 2.125l0 0.390625q0 1.03125 0.34375 1.90625q0.34375 0.875 0.96875 1.5q0.609375 0.640625 1.484375 1.0q0.875 0.359375 1.90625 0.359375zm-0.21875 -8.84375q0.65625 0 1.125 0.234375q0.46875 0.234375 0.765625 0.625q0.3125 0.375 0.484375 0.90625q0.171875 0.515625 0.171875 0.984375l0 0.078125l-5.296875 0q0.09375 -0.6875 0.34375 -1.203125q0.265625 -0.53125 0.625 -0.890625q0.359375 -0.359375 0.8125 -0.546875q0.453125 -0.1875 0.96875 -0.1875zm13.523682 -1.375q-1.078125 0 -1.921875 0.46875q-0.84375 0.46875 -1.4375 1.265625l-0.015625 -0.234375l-0.078125 -1.328125l-1.59375 0l0 9.859375l1.6875 0l0 -6.328125q0.171875 -0.453125 0.421875 -0.8125q0.25 -0.375 0.578125 -0.625q0.375 -0.296875 0.875 -0.4375q0.5 -0.15625 1.125 -0.15625q0.484375 0 0.921875 0.046875q0.453125 0.046875 0.9375 0.15625l0.234375 -1.640625q-0.265625 -0.109375 -0.765625 -0.171875q-0.5 -0.0625 -0.96875 -0.0625z" fill-rule="nonzero"/><path fill="#9fc5e8" d="m404.40945 302.11023l151.18112 0l0 42.015747l-151.18112 0z" fill-rule="evenodd"/><path fill="#1c4587" d="m440.99896 327.84274q-0.796875 0 -1.328125 -0.3125q-0.53125 -0.3125 -0.84375 -0.828125q-0.328125 -0.5 -0.46875 -1.125q-0.140625 -0.640625 -0.140625 -1.28125l0 -0.390625q0 -0.625 0.140625 -1.25q0.140625 -0.640625 0.46875 -1.15625q0.328125 -0.5 0.859375 -0.8125q0.53125 -0.3125 1.3125 -0.3125q0.515625 0 0.953125 0.171875q0.4375 0.171875 0.765625 0.484375q0.3125 0.296875 0.5 0.6875q0.1875 0.390625 0.203125 0.84375l1.59375 0q0 -0.75 -0.3125 -1.40625q-0.296875 -0.65625 -0.828125 -1.140625q-0.53125 -0.46875 -1.265625 -0.734375q-0.734375 -0.28125 -1.609375 -0.28125q-1.109375 0 -1.953125 0.40625q-0.84375 0.390625 -1.390625 1.0625q-0.5625 0.6875 -0.859375 1.578125q-0.28125 0.890625 -0.28125 1.859375l0 0.390625q0 0.984375 0.28125 1.875q0.296875 0.875 0.859375 1.5625q0.546875 0.671875 1.390625 1.078125q0.84375 0.40625 1.953125 0.40625q0.78125 0 1.5 -0.265625q0.71875 -0.28125 1.28125 -0.734375q0.5625 -0.4375 0.890625 -1.03125q0.328125 -0.609375 0.34375 -1.265625l-1.59375 0q-0.015625 0.40625 -0.21875 0.765625q-0.203125 0.34375 -0.546875 0.609375q-0.328125 0.265625 -0.765625 0.40625q-0.4375 0.140625 -0.890625 0.140625zm6.523712 -3.828125l0 0.203125q0 1.0625 0.3125 1.96875q0.3125 0.90625 0.890625 1.59375q0.578125 0.671875 1.40625 1.0625q0.84375 0.375 1.890625 0.375q1.03125 0 1.859375 -0.375q0.828125 -0.390625 1.40625 -1.0625q0.578125 -0.6875 0.890625 -1.59375q0.3125 -0.90625 0.3125 -1.96875l0 -0.203125q0 -1.0625 -0.3125 -1.984375q-0.3125 -0.921875 -0.890625 -1.59375q-0.578125 -0.671875 -1.421875 -1.046875q-0.828125 -0.390625 -1.875 -0.390625q-1.03125 0 -1.859375 0.390625q-0.828125 0.375 -1.40625 1.046875q-0.578125 0.671875 -0.890625 1.59375q-0.3125 0.921875 -0.3125 1.984375zm1.6875 0.203125l0 -0.203125q0 -0.71875 0.171875 -1.375q0.171875 -0.671875 0.53125 -1.171875q0.34375 -0.5 0.859375 -0.796875q0.515625 -0.296875 1.21875 -0.296875q0.703125 0 1.21875 0.296875q0.53125 0.296875 0.890625 0.796875q0.34375 0.5 0.515625 1.171875q0.1875 0.65625 0.1875 1.375l0 0.203125q0 0.71875 -0.171875 1.390625q-0.171875 0.65625 -0.515625 1.15625q-0.359375 0.5 -0.890625 0.796875q-0.515625 0.28125 -1.203125 0.28125q-0.703125 0 -1.234375 -0.28125q-0.53125 -0.296875 -0.875 -0.796875q-0.359375 -0.5 -0.53125 -1.15625q-0.171875 -0.671875 -0.171875 -1.390625zm10.758057 -5.046875l-1.515625 0l0 9.859375l1.609375 0l0 -7.84375q0.046875 -0.140625 0.125 -0.265625q0.09375 -0.140625 0.21875 -0.234375q0.15625 -0.125 0.375 -0.1875q0.21875 -0.078125 0.53125 -0.078125q0.265625 0 0.46875 0.078125q0.203125 0.0625 0.34375 0.203125q0.15625 0.15625 0.21875 0.390625q0.0625 0.234375 0.0625 0.546875l0 7.390625l1.609375 0l0 -7.375q0 -0.0625 0 -0.09375q0 -0.046875 0 -0.09375q0.03125 -0.21875 0.109375 -0.40625q0.078125 -0.1875 0.21875 -0.34375q0.15625 -0.125 0.375 -0.203125q0.21875 -0.09375 0.515625 -0.09375q0.28125 0 0.484375 0.078125q0.21875 0.0625 0.375 0.21875q0.140625 0.15625 0.203125 0.390625q0.078125 0.234375 0.078125 0.546875l0 7.375l1.59375 0l0 -7.359375q0 -0.71875 -0.171875 -1.234375q-0.15625 -0.53125 -0.453125 -0.859375q-0.28125 -0.28125 -0.703125 -0.421875q-0.40625 -0.15625 -0.921875 -0.15625q-0.359375 0 -0.6875 0.09375q-0.3125 0.09375 -0.5625 0.25q-0.203125 0.125 -0.375 0.3125q-0.171875 0.1875 -0.296875 0.390625q-0.109375 -0.21875 -0.25 -0.40625q-0.140625 -0.1875 -0.3125 -0.3125q-0.234375 -0.15625 -0.546875 -0.234375q-0.3125 -0.09375 -0.703125 -0.09375q-0.6875 0 -1.1875 0.296875q-0.484375 0.28125 -0.78125 0.8125l-0.046875 -0.9375zm10.414337 13.65625l1.6875 0l0 -4.75q0.171875 0.203125 0.375 0.375q0.21875 0.171875 0.453125 0.3125q0.390625 0.21875 0.875 0.328125q0.5 0.125 1.0625 0.125q0.921875 0 1.640625 -0.375q0.734375 -0.390625 1.234375 -1.0625q0.484375 -0.6875 0.734375 -1.59375q0.265625 -0.921875 0.265625 -1.96875l0 -0.203125q0 -1.09375 -0.265625 -2.015625q-0.25 -0.9375 -0.734375 -1.59375q-0.5 -0.671875 -1.234375 -1.03125q-0.71875 -0.375 -1.671875 -0.375q-0.53125 0 -1.0 0.109375q-0.46875 0.109375 -0.859375 0.328125q-0.265625 0.140625 -0.515625 0.359375q-0.234375 0.203125 -0.421875 0.453125l-0.09375 -1.078125l-1.53125 0l0 13.65625zm6.640625 -8.8125l0 0.203125q0 0.71875 -0.171875 1.375q-0.15625 0.65625 -0.484375 1.15625q-0.328125 0.5 -0.84375 0.796875q-0.5 0.296875 -1.203125 0.296875q-0.4375 0 -0.796875 -0.109375q-0.359375 -0.109375 -0.640625 -0.3125q-0.265625 -0.15625 -0.46875 -0.390625q-0.1875 -0.234375 -0.34375 -0.515625l0 -4.75q0.171875 -0.296875 0.390625 -0.546875q0.234375 -0.265625 0.53125 -0.4375q0.265625 -0.171875 0.59375 -0.265625q0.328125 -0.09375 0.71875 -0.09375q0.71875 0 1.21875 0.296875q0.515625 0.28125 0.84375 0.78125q0.328125 0.5 0.484375 1.15625q0.171875 0.640625 0.171875 1.359375zm4.0861816 0l0 0.203125q0 1.0625 0.3125 1.96875q0.3125 0.90625 0.890625 1.59375q0.578125 0.671875 1.40625 1.0625q0.84375 0.375 1.890625 0.375q1.03125 0 1.859375 -0.375q0.828125 -0.390625 1.40625 -1.0625q0.578125 -0.6875 0.890625 -1.59375q0.3125 -0.90625 0.3125 -1.96875l0 -0.203125q0 -1.0625 -0.3125 -1.984375q-0.3125 -0.921875 -0.890625 -1.59375q-0.578125 -0.671875 -1.421875 -1.046875q-0.828125 -0.390625 -1.875 -0.390625q-1.03125 0 -1.859375 0.390625q-0.828125 0.375 -1.40625 1.046875q-0.578125 0.671875 -0.890625 1.59375q-0.3125 0.921875 -0.3125 1.984375zm1.6875 0.203125l0 -0.203125q0 -0.71875 0.171875 -1.375q0.171875 -0.671875 0.53125 -1.171875q0.34375 -0.5 0.859375 -0.796875q0.515625 -0.296875 1.21875 -0.296875q0.703125 0 1.21875 0.296875q0.53125 0.296875 0.890625 0.796875q0.34375 0.5 0.515625 1.171875q0.1875 0.65625 0.1875 1.375l0 0.203125q0 0.71875 -0.171875 1.390625q-0.171875 0.65625 -0.515625 1.15625q-0.359375 0.5 -0.890625 0.796875q-0.515625 0.28125 -1.203125 0.28125q-0.703125 0 -1.234375 -0.28125q-0.53125 -0.296875 -0.875 -0.796875q-0.359375 -0.5 -0.53125 -1.15625q-0.171875 -0.671875 -0.171875 -1.390625zm16.539337 2.203125q0 0.234375 -0.09375 0.453125q-0.09375 0.203125 -0.265625 0.375q-0.28125 0.28125 -0.78125 0.4375q-0.5 0.15625 -1.171875 0.15625q-0.4375 0 -0.875 -0.078125q-0.4375 -0.09375 -0.796875 -0.3125q-0.359375 -0.21875 -0.609375 -0.578125q-0.234375 -0.359375 -0.265625 -0.875l-1.6875 0q0 0.625 0.28125 1.21875q0.296875 0.578125 0.84375 1.015625q0.53125 0.4375 1.3125 0.71875q0.78125 0.265625 1.796875 0.265625q0.875 0 1.609375 -0.203125q0.734375 -0.21875 1.265625 -0.609375q0.53125 -0.375 0.8125 -0.90625q0.296875 -0.546875 0.296875 -1.203125q0 -0.609375 -0.265625 -1.0625q-0.25 -0.46875 -0.734375 -0.828125q-0.5 -0.34375 -1.21875 -0.59375q-0.71875 -0.25 -1.625 -0.453125q-0.6875 -0.125 -1.140625 -0.265625q-0.453125 -0.15625 -0.71875 -0.34375q-0.28125 -0.171875 -0.390625 -0.40625q-0.109375 -0.234375 -0.109375 -0.515625q0 -0.28125 0.140625 -0.546875q0.140625 -0.265625 0.40625 -0.46875q0.265625 -0.203125 0.671875 -0.3125q0.40625 -0.125 0.953125 -0.125q0.515625 0 0.921875 0.15625q0.421875 0.140625 0.71875 0.375q0.28125 0.234375 0.4375 0.546875q0.171875 0.296875 0.171875 0.625l1.6875 0q0 -0.65625 -0.28125 -1.21875q-0.265625 -0.5625 -0.78125 -0.96875q-0.515625 -0.421875 -1.25 -0.65625q-0.71875 -0.234375 -1.625 -0.234375q-0.859375 0 -1.5625 0.234375q-0.703125 0.21875 -1.21875 0.609375q-0.5 0.390625 -0.78125 0.921875q-0.28125 0.515625 -0.28125 1.109375q0 0.609375 0.265625 1.078125q0.28125 0.453125 0.78125 0.796875q0.484375 0.34375 1.171875 0.59375q0.703125 0.234375 1.5625 0.421875q0.6875 0.125 1.140625 0.296875q0.46875 0.171875 0.75 0.375q0.28125 0.203125 0.40625 0.4375q0.125 0.234375 0.125 0.546875zm8.992432 2.796875q1.4375 0 2.421875 -0.578125q0.984375 -0.578125 1.4687805 -1.328125l-1.0312805 -0.796875q-0.46875 0.59375 -1.171875 0.96875q-0.6875 0.359375 -1.59375 0.359375q-0.6875 0 -1.25 -0.25q-0.5625 -0.265625 -0.96875 -0.71875q-0.390625 -0.40625 -0.609375 -0.953125q-0.21875 -0.546875 -0.28125 -1.265625l0 -0.078125l7.0312805 0l0 -0.75q0 -1.03125 -0.265625 -1.90625q-0.25003052 -0.890625 -0.7812805 -1.546875q-0.53125 -0.640625 -1.328125 -1.0q-0.796875 -0.375 -1.859375 -0.375q-0.84375 0 -1.65625 0.34375q-0.796875 0.34375 -1.4375 0.984375q-0.625 0.65625 -1.015625 1.609375q-0.375 0.9375 -0.375 2.125l0 0.390625q0 1.03125 0.34375 1.90625q0.34375 0.875 0.96875 1.5q0.609375 0.640625 1.484375 1.0q0.875 0.359375 1.90625 0.359375zm-0.21875 -8.84375q0.65625 0 1.125 0.234375q0.46875 0.234375 0.765625 0.625q0.3125 0.375 0.484375 0.90625q0.171875 0.515625 0.171875 0.984375l0 0.078125l-5.296875 0q0.09375 -0.6875 0.34375 -1.203125q0.265625 -0.53125 0.625 -0.890625q0.359375 -0.359375 0.8125 -0.546875q0.453125 -0.1875 0.96875 -0.1875zm13.523712 -1.375q-1.078125 0 -1.921875 0.46875q-0.84375 0.46875 -1.4375 1.265625l-0.015625 -0.234375l-0.078125 -1.328125l-1.59375 0l0 9.859375l1.6875 0l0 -6.328125q0.171875 -0.453125 0.421875 -0.8125q0.25 -0.375 0.578125 -0.625q0.375 -0.296875 0.875 -0.4375q0.5 -0.15625 1.125 -0.15625q0.484375 0 0.921875 0.046875q0.453125 0.046875 0.9375 0.15625l0.234375 -1.640625q-0.265625 -0.109375 -0.765625 -0.171875q-0.5 -0.0625 -0.96875 -0.0625z" fill-rule="nonzero"/><path fill="#9fc5e8" d="m404.40945 354.14172l151.18112 0l0 42.015747l-151.18112 0z" fill-rule="evenodd"/><path fill="#1c4587" d="m442.39362 384.8586l1.6875 0l0 -4.75q0.171875 0.203125 0.375 0.375q0.21875 0.171875 0.453125 0.3125q0.390625 0.21875 0.875 0.328125q0.5 0.125 1.0625 0.125q0.921875 0 1.640625 -0.375q0.734375 -0.390625 1.234375 -1.0625q0.484375 -0.6875 0.734375 -1.59375q0.265625 -0.921875 0.265625 -1.96875l0 -0.203125q0 -1.09375 -0.265625 -2.015625q-0.25 -0.9375 -0.734375 -1.59375q-0.5 -0.671875 -1.234375 -1.03125q-0.71875 -0.375 -1.671875 -0.375q-0.53125 0 -1.0 0.109375q-0.46875 0.109375 -0.859375 0.328125q-0.265625 0.140625 -0.515625 0.359375q-0.234375 0.203125 -0.421875 0.453125l-0.09375 -1.078125l-1.53125 0l0 13.65625zm6.640625 -8.8125l0 0.203125q0 0.71875 -0.171875 1.375q-0.15625 0.65625 -0.484375 1.15625q-0.328125 0.5 -0.84375 0.796875q-0.5 0.296875 -1.203125 0.296875q-0.4375 0 -0.796875 -0.109375q-0.359375 -0.109375 -0.640625 -0.3125q-0.265625 -0.15625 -0.46875 -0.390625q-0.1875 -0.234375 -0.34375 -0.515625l0 -4.75q0.171875 -0.296875 0.390625 -0.546875q0.234375 -0.265625 0.53125 -0.4375q0.265625 -0.171875 0.59375 -0.265625q0.328125 -0.09375 0.71875 -0.09375q0.71875 0 1.21875 0.296875q0.515625 0.28125 0.84375 0.78125q0.328125 0.5 0.484375 1.15625q0.171875 0.640625 0.171875 1.359375zm11.039337 5.015625l1.75 0l0 -0.140625q-0.15625 -0.421875 -0.25 -0.96875q-0.09375 -0.546875 -0.09375 -1.046875l0 -4.578125q0 -0.828125 -0.296875 -1.4375q-0.296875 -0.625 -0.8125 -1.046875q-0.53125 -0.40625 -1.25 -0.609375q-0.71875 -0.203125 -1.5625 -0.203125q-0.921875 0 -1.65625 0.25q-0.71875 0.25 -1.21875 0.65625q-0.5 0.421875 -0.78125 0.953125q-0.265625 0.515625 -0.265625 1.046875l1.6875 0q0 -0.3125 0.140625 -0.59375q0.15625 -0.28125 0.4375 -0.5q0.265625 -0.203125 0.65625 -0.328125q0.40625 -0.140625 0.90625 -0.140625q0.546875 0 0.96875 0.140625q0.4375 0.140625 0.734375 0.390625q0.296875 0.25 0.453125 0.609375q0.171875 0.34375 0.171875 0.796875l0 0.78125l-1.828125 0q-1.03125 0 -1.875 0.203125q-0.828125 0.1875 -1.421875 0.59375q-0.59375 0.40625 -0.921875 1.015625q-0.3125 0.609375 -0.3125 1.421875q0 0.625 0.234375 1.15625q0.25 0.53125 0.6875 0.90625q0.4375 0.40625 1.0625 0.640625q0.640625 0.21875 1.4375 0.21875q0.46875 0 0.890625 -0.109375q0.4375 -0.09375 0.828125 -0.265625q0.375 -0.171875 0.6875 -0.390625q0.3125 -0.234375 0.5625 -0.5q0.03125 0.3125 0.09375 0.609375q0.0625 0.28125 0.15625 0.46875zm-2.984375 -1.28125q-0.484375 0 -0.859375 -0.125q-0.375 -0.140625 -0.625 -0.359375q-0.234375 -0.21875 -0.359375 -0.53125q-0.125 -0.3125 -0.125 -0.671875q0 -0.390625 0.140625 -0.6875q0.140625 -0.296875 0.40625 -0.515625q0.390625 -0.3125 1.03125 -0.453125q0.65625 -0.15625 1.53125 -0.15625l1.5625 0l0 2.0q-0.140625 0.28125 -0.40625 0.5625q-0.25 0.265625 -0.59375 0.46875q-0.34375 0.203125 -0.78125 0.34375q-0.421875 0.125 -0.921875 0.125zm7.9611816 -8.578125l0 1.46875l3.359375 0l0 6.9375l-3.359375 0l0 1.453125l8.265625 0l0 -1.453125l-3.21875 0l0 -8.40625l-5.046875 0zm3.140625 -2.578125q0 0.40625 0.25 0.6875q0.25 0.265625 0.765625 0.265625q0.5 0 0.75 -0.265625q0.25 -0.28125 0.25 -0.6875q0 -0.234375 -0.078125 -0.421875q-0.0625 -0.1875 -0.203125 -0.328125q-0.125 -0.109375 -0.3125 -0.171875q-0.171875 -0.078125 -0.40625 -0.078125q-0.25 0 -0.4375 0.078125q-0.171875 0.0625 -0.296875 0.171875q-0.140625 0.140625 -0.21875 0.34375q-0.0625 0.1875 -0.0625 0.40625zm7.789337 12.4375l1.6875 0l0 -7.0625q0.171875 -0.328125 0.40625 -0.59375q0.234375 -0.265625 0.515625 -0.453125q0.328125 -0.234375 0.71875 -0.359375q0.40625 -0.140625 0.875 -0.140625q0.546875 0 0.953125 0.125q0.421875 0.125 0.703125 0.40625q0.28125 0.296875 0.421875 0.75q0.15625 0.453125 0.15625 1.109375l0 6.21875l1.6875 0l0 -6.265625q0 -0.96875 -0.25 -1.6875q-0.234375 -0.71875 -0.6875 -1.1875q-0.4375 -0.453125 -1.078125 -0.671875q-0.625 -0.21875 -1.40625 -0.21875q-0.5625 0 -1.078125 0.171875q-0.515625 0.15625 -0.953125 0.4375q-0.296875 0.1875 -0.5625 0.453125q-0.25 0.265625 -0.46875 0.5625l-0.125 -1.453125l-1.515625 0l0 9.859375zm15.195557 -12.25l-1.703125 0l0 2.390625l-2.578125 0l0 1.3125l2.578125 0l0 5.34375q0 0.921875 0.234375 1.5625q0.25 0.640625 0.671875 1.046875q0.421875 0.40625 0.984375 0.59375q0.578125 0.1875 1.234375 0.1875q0.390625 0 0.78125 -0.046875q0.40625 -0.03125 0.75 -0.109375q0.359375 -0.0625 0.65625 -0.15625q0.296875 -0.09375 0.515625 -0.21875l-0.234375 -1.203125q-0.15625 0.046875 -0.40625 0.09375q-0.234375 0.046875 -0.515625 0.09375q-0.28125 0.046875 -0.578125 0.078125q-0.28125 0.03125 -0.546875 0.03125q-0.375 0 -0.71875 -0.09375q-0.328125 -0.09375 -0.578125 -0.3125q-0.265625 -0.21875 -0.40625 -0.59375q-0.140625 -0.375 -0.140625 -0.953125l0 -5.34375l3.75 0l0 -1.3125l-3.75 0l0 -2.390625zm11.554962 12.4375q1.4375 0 2.421875 -0.578125q0.984375 -0.578125 1.46875 -1.328125l-1.03125 -0.796875q-0.46875 0.59375 -1.171875 0.96875q-0.6875 0.359375 -1.59375 0.359375q-0.6875 0 -1.25 -0.25q-0.5625 -0.265625 -0.96875 -0.71875q-0.390625 -0.40625 -0.609375 -0.953125q-0.21875 -0.546875 -0.28125 -1.265625l0 -0.078125l7.03125 0l0 -0.75q0 -1.03125 -0.265625 -1.90625q-0.25 -0.890625 -0.78125 -1.546875q-0.53125 -0.640625 -1.328125 -1.0q-0.796875 -0.375 -1.859375 -0.375q-0.84375 0 -1.65625 0.34375q-0.796875 0.34375 -1.4375 0.984375q-0.625 0.65625 -1.015625 1.609375q-0.375 0.9375 -0.375 2.125l0 0.390625q0 1.03125 0.34375 1.90625q0.34375 0.875 0.96875 1.5q0.609375 0.640625 1.484375 1.0q0.875 0.359375 1.90625 0.359375zm-0.21875 -8.84375q0.65625 0 1.125 0.234375q0.46875 0.234375 0.765625 0.625q0.3125 0.375 0.484375 0.90625q0.171875 0.515625 0.171875 0.984375l0 0.078125l-5.296875 0q0.09375 -0.6875 0.34375 -1.203125q0.265625 -0.53125 0.625 -0.890625q0.359375 -0.359375 0.8125 -0.546875q0.453125 -0.1875 0.96875 -0.1875zm13.523712 -1.375q-1.078125 0 -1.921875 0.46875q-0.84375 0.46875 -1.4375 1.265625l-0.015625 -0.234375l-0.078125 -1.328125l-1.5937805 0l0 9.859375l1.6875305 0l0 -6.328125q0.171875 -0.453125 0.421875 -0.8125q0.25 -0.375 0.578125 -0.625q0.375 -0.296875 0.875 -0.4375q0.5 -0.15625 1.125 -0.15625q0.484375 0 0.921875 0.046875q0.453125 0.046875 0.9375 0.15625l0.234375 -1.640625q-0.265625 -0.109375 -0.765625 -0.171875q-0.5 -0.0625 -0.96875 -0.0625z" fill-rule="nonzero"/><path fill="#cfe2f3" d="m393.5118 423.937l171.71652 0l0 42.015747l-171.71652 0z" fill-rule="evenodd"/><path fill="#073763" d="m430.56815 454.65387l1.6875 0l0 -4.75q0.171875 0.203125 0.375 0.375q0.21875 0.171875 0.453125 0.3125q0.390625 0.21875 0.875 0.328125q0.5 0.125 1.0625 0.125q0.921875 0 1.640625 -0.375q0.734375 -0.390625 1.234375 -1.0625q0.484375 -0.6875 0.734375 -1.59375q0.265625 -0.921875 0.265625 -1.96875l0 -0.203125q0 -1.09375 -0.265625 -2.015625q-0.25 -0.9375 -0.734375 -1.59375q-0.5 -0.671875 -1.234375 -1.03125q-0.71875 -0.375 -1.671875 -0.375q-0.53125 0 -1.0 0.109375q-0.46875 0.109375 -0.859375 0.328125q-0.265625 0.140625 -0.515625 0.359375q-0.234375 0.203125 -0.421875 0.453125l-0.09375 -1.078125l-1.53125 0l0 13.65625zm6.640625 -8.8125l0 0.203125q0 0.71875 -0.171875 1.375q-0.15625 0.65625 -0.484375 1.15625q-0.328125 0.5 -0.84375 0.796875q-0.5 0.296875 -1.203125 0.296875q-0.4375 0 -0.796875 -0.109375q-0.359375 -0.109375 -0.640625 -0.3125q-0.265625 -0.15625 -0.46875 -0.390625q-0.1875 -0.234375 -0.34375 -0.515625l0 -4.75q0.171875 -0.296875 0.390625 -0.546875q0.234375 -0.265625 0.53125 -0.4375q0.265625 -0.171875 0.59375 -0.265625q0.328125 -0.09375 0.71875 -0.09375q0.71875 0 1.21875 0.296875q0.515625 0.28125 0.84375 0.78125q0.328125 0.5 0.484375 1.15625q0.171875 0.640625 0.171875 1.359375zm11.023682 -5.015625q-1.078125 0 -1.921875 0.46875q-0.84375 0.46875 -1.4375 1.265625l-0.015625 -0.234375l-0.078125 -1.328125l-1.59375 0l0 9.859375l1.6875 0l0 -6.328125q0.171875 -0.453125 0.421875 -0.8125q0.25 -0.375 0.578125 -0.625q0.375 -0.296875 0.875 -0.4375q0.5 -0.15625 1.125 -0.15625q0.484375 0 0.921875 0.046875q0.453125 0.046875 0.9375 0.15625l0.234375 -1.640625q-0.265625 -0.109375 -0.765625 -0.171875q-0.5 -0.0625 -0.96875 -0.0625zm4.258087 5.015625l0 0.203125q0 1.0625 0.3125 1.96875q0.3125 0.90625 0.890625 1.59375q0.578125 0.671875 1.40625 1.0625q0.84375 0.375 1.890625 0.375q1.03125 0 1.859375 -0.375q0.828125 -0.390625 1.40625 -1.0625q0.578125 -0.6875 0.890625 -1.59375q0.3125 -0.90625 0.3125 -1.96875l0 -0.203125q0 -1.0625 -0.3125 -1.984375q-0.3125 -0.921875 -0.890625 -1.59375q-0.578125 -0.671875 -1.421875 -1.046875q-0.828125 -0.390625 -1.875 -0.390625q-1.03125 0 -1.859375 0.390625q-0.828125 0.375 -1.40625 1.046875q-0.578125 0.671875 -0.890625 1.59375q-0.3125 0.921875 -0.3125 1.984375zm1.6875 0.203125l0 -0.203125q0 -0.71875 0.171875 -1.375q0.171875 -0.671875 0.53125 -1.171875q0.34375 -0.5 0.859375 -0.796875q0.515625 -0.296875 1.21875 -0.296875q0.703125 0 1.21875 0.296875q0.53125 0.296875 0.890625 0.796875q0.34375 0.5 0.515625 1.171875q0.1875 0.65625 0.1875 1.375l0 0.203125q0 0.71875 -0.171875 1.390625q-0.171875 0.65625 -0.515625 1.15625q-0.359375 0.5 -0.890625 0.796875q-0.515625 0.28125 -1.203125 0.28125q-0.703125 0 -1.234375 -0.28125q-0.53125 -0.296875 -0.875 -0.796875q-0.359375 -0.5 -0.53125 -1.15625q-0.171875 -0.671875 -0.171875 -1.390625zm14.179932 3.625q-0.796875 0 -1.328125 -0.3125q-0.53125 -0.3125 -0.84375 -0.828125q-0.328125 -0.5 -0.46875 -1.125q-0.140625 -0.640625 -0.140625 -1.28125l0 -0.390625q0 -0.625 0.140625 -1.25q0.140625 -0.640625 0.46875 -1.15625q0.328125 -0.5 0.859375 -0.8125q0.53125 -0.3125 1.3125 -0.3125q0.515625 0 0.953125 0.171875q0.4375 0.171875 0.765625 0.484375q0.3125 0.296875 0.5 0.6875q0.1875 0.390625 0.203125 0.84375l1.59375 0q0 -0.75 -0.3125 -1.40625q-0.296875 -0.65625 -0.828125 -1.140625q-0.53125 -0.46875 -1.265625 -0.734375q-0.734375 -0.28125 -1.609375 -0.28125q-1.109375 0 -1.953125 0.40625q-0.84375 0.390625 -1.390625 1.0625q-0.5625 0.6875 -0.859375 1.578125q-0.28125 0.890625 -0.28125 1.859375l0 0.390625q0 0.984375 0.28125 1.875q0.296875 0.875 0.859375 1.5625q0.546875 0.671875 1.390625 1.078125q0.84375 0.40625 1.953125 0.40625q0.78125 0 1.5 -0.265625q0.71875 -0.28125 1.28125 -0.734375q0.5625 -0.4375 0.890625 -1.03125q0.328125 -0.609375 0.34375 -1.265625l-1.59375 0q-0.015625 0.40625 -0.21875 0.765625q-0.203125 0.34375 -0.546875 0.609375q-0.328125 0.265625 -0.765625 0.40625q-0.4375 0.140625 -0.890625 0.140625zm11.351837 1.375q1.4375 0 2.421875 -0.578125q0.984375 -0.578125 1.46875 -1.328125l-1.03125 -0.796875q-0.46875 0.59375 -1.171875 0.96875q-0.6875 0.359375 -1.59375 0.359375q-0.6875 0 -1.25 -0.25q-0.5625 -0.265625 -0.96875 -0.71875q-0.390625 -0.40625 -0.609375 -0.953125q-0.21875 -0.546875 -0.28125 -1.265625l0 -0.078125l7.03125 0l0 -0.75q0 -1.03125 -0.265625 -1.90625q-0.25 -0.890625 -0.78125 -1.546875q-0.53125 -0.640625 -1.328125 -1.0q-0.796875 -0.375 -1.859375 -0.375q-0.84375 0 -1.65625 0.34375q-0.796875 0.34375 -1.4375 0.984375q-0.625 0.65625 -1.015625 1.609375q-0.375 0.9375 -0.375 2.125l0 0.390625q0 1.03125 0.34375 1.90625q0.34375 0.875 0.96875 1.5q0.609375 0.640625 1.484375 1.0q0.875 0.359375 1.90625 0.359375zm-0.21875 -8.84375q0.65625 0 1.125 0.234375q0.46875 0.234375 0.765625 0.625q0.3125 0.375 0.484375 0.90625q0.171875 0.515625 0.171875 0.984375l0 0.078125l-5.296875 0q0.09375 -0.6875 0.34375 -1.203125q0.265625 -0.53125 0.625 -0.890625q0.359375 -0.359375 0.8125 -0.546875q0.453125 -0.1875 0.96875 -0.1875zm13.617432 6.046875q0 0.234375 -0.09375 0.453125q-0.09375 0.203125 -0.265625 0.375q-0.28125 0.28125 -0.78125 0.4375q-0.5 0.15625 -1.171875 0.15625q-0.4375 0 -0.875 -0.078125q-0.4375 -0.09375 -0.796875 -0.3125q-0.359375 -0.21875 -0.609375 -0.578125q-0.234375 -0.359375 -0.265625 -0.875l-1.6875 0q0 0.625 0.28125 1.21875q0.296875 0.578125 0.84375 1.015625q0.53125 0.4375 1.3125 0.71875q0.78125 0.265625 1.796875 0.265625q0.875 0 1.609375 -0.203125q0.734375 -0.21875 1.265625 -0.609375q0.53125 -0.375 0.8125 -0.90625q0.296875 -0.546875 0.296875 -1.203125q0 -0.609375 -0.265625 -1.0625q-0.25 -0.46875 -0.734375 -0.828125q-0.5 -0.34375 -1.21875 -0.59375q-0.71875 -0.25 -1.625 -0.453125q-0.6875 -0.125 -1.140625 -0.265625q-0.453125 -0.15625 -0.71875 -0.34375q-0.28125 -0.171875 -0.390625 -0.40625q-0.109375 -0.234375 -0.109375 -0.515625q0 -0.28125 0.140625 -0.546875q0.140625 -0.265625 0.40625 -0.46875q0.265625 -0.203125 0.671875 -0.3125q0.40625 -0.125 0.953125 -0.125q0.515625 0 0.921875 0.15625q0.421875 0.140625 0.71875 0.375q0.28125 0.234375 0.4375 0.546875q0.171875 0.296875 0.171875 0.625l1.6875 0q0 -0.65625 -0.28125 -1.21875q-0.265625 -0.5625 -0.78125 -0.96875q-0.515625 -0.421875 -1.25 -0.65625q-0.71875 -0.234375 -1.625 -0.234375q-0.859375 0 -1.5625 0.234375q-0.703125 0.21875 -1.21875 0.609375q-0.5 0.390625 -0.78125 0.921875q-0.28125 0.515625 -0.28125 1.109375q0 0.609375 0.265625 1.078125q0.28125 0.453125 0.78125 0.796875q0.484375 0.34375 1.171875 0.59375q0.703125 0.234375 1.5625 0.421875q0.6875 0.125 1.140625 0.296875q0.46875 0.171875 0.75 0.375q0.28125 0.203125 0.40625 0.4375q0.125 0.234375 0.125 0.546875zm11.195587 0q0 0.234375 -0.09375 0.453125q-0.09375 0.203125 -0.265625 0.375q-0.28125 0.28125 -0.78125 0.4375q-0.5 0.15625 -1.171875 0.15625q-0.4375 0 -0.875 -0.078125q-0.4375 -0.09375 -0.796875 -0.3125q-0.359375 -0.21875 -0.609375 -0.578125q-0.234375 -0.359375 -0.265625 -0.875l-1.6875 0q0 0.625 0.28125 1.21875q0.296875 0.578125 0.84375 1.015625q0.53125 0.4375 1.3125 0.71875q0.78125 0.265625 1.796875 0.265625q0.875 0 1.609375 -0.203125q0.734375 -0.21875 1.265625 -0.609375q0.53125 -0.375 0.8125 -0.90625q0.296875 -0.546875 0.296875 -1.203125q0 -0.609375 -0.265625 -1.0625q-0.25 -0.46875 -0.734375 -0.828125q-0.5 -0.34375 -1.21875 -0.59375q-0.71875 -0.25 -1.625 -0.453125q-0.6875 -0.125 -1.140625 -0.265625q-0.453125 -0.15625 -0.71875 -0.34375q-0.28125 -0.171875 -0.390625 -0.40625q-0.109375 -0.234375 -0.109375 -0.515625q0 -0.28125 0.140625 -0.546875q0.140625 -0.265625 0.40625 -0.46875q0.265625 -0.203125 0.671875 -0.3125q0.40625 -0.125 0.953125 -0.125q0.515625 0 0.921875 0.15625q0.421875 0.140625 0.71875 0.375q0.28125 0.234375 0.4375 0.546875q0.171875 0.296875 0.171875 0.625l1.6875 0q0 -0.65625 -0.28125 -1.21875q-0.265625 -0.5625 -0.78125 -0.96875q-0.515625 -0.421875 -1.25 -0.65625q-0.71875 -0.234375 -1.625 -0.234375q-0.859375 0 -1.5625 0.234375q-0.703125 0.21875 -1.21875 0.609375q-0.5 0.390625 -0.78125 0.921875q-0.28125 0.515625 -0.28125 1.109375q0 0.609375 0.265625 1.078125q0.28125 0.453125 0.78125 0.796875q0.484375 0.34375 1.171875 0.59375q0.703125 0.234375 1.5625 0.421875q0.6875 0.125 1.140625 0.296875q0.46875 0.171875 0.75 0.375q0.28125 0.203125 0.40625 0.4375q0.125 0.234375 0.125 0.546875zm4.1643066 -2.40625l0 0.203125q0 1.0625 0.3125 1.96875q0.3125 0.90625 0.890625 1.59375q0.578125 0.671875 1.40625 1.0625q0.84375 0.375 1.890625 0.375q1.03125 0 1.859375 -0.375q0.828125 -0.390625 1.40625 -1.0625q0.578125 -0.6875 0.890625 -1.59375q0.3125 -0.90625 0.3125 -1.96875l0 -0.203125q0 -1.0625 -0.3125 -1.984375q-0.3125 -0.921875 -0.890625 -1.59375q-0.578125 -0.671875 -1.421875 -1.046875q-0.828125 -0.390625 -1.875 -0.390625q-1.03125 0 -1.859375 0.390625q-0.828125 0.375 -1.40625 1.046875q-0.578125 0.671875 -0.890625 1.59375q-0.3125 0.921875 -0.3125 1.984375zm1.6875 0.203125l0 -0.203125q0 -0.71875 0.171875 -1.375q0.171875 -0.671875 0.53125 -1.171875q0.34375 -0.5 0.859375 -0.796875q0.515625 -0.296875 1.21875 -0.296875q0.703125 0 1.21875 0.296875q0.53125 0.296875 0.890625 0.796875q0.34375 0.5 0.515625 1.171875q0.1875 0.65625 0.1875 1.375l0 0.203125q0 0.71875 -0.171875 1.390625q-0.171875 0.65625 -0.515625 1.15625q-0.359375 0.5 -0.890625 0.796875q-0.515625 0.28125 -1.203125 0.28125q-0.703125 0 -1.234375 -0.28125q-0.53125 -0.296875 -0.875 -0.796875q-0.359375 -0.5 -0.53125 -1.15625q-0.171875 -0.671875 -0.171875 -1.390625zm16.445557 -5.21875q-1.078125 0 -1.921875 0.46875q-0.84375 0.46875 -1.4375 1.265625l-0.015625 -0.234375l-0.078125 -1.328125l-1.59375 0l0 9.859375l1.6875 0l0 -6.328125q0.171875 -0.453125 0.421875 -0.8125q0.25 -0.375 0.578125 -0.625q0.375 -0.296875 0.875 -0.4375q0.5 -0.15625 1.125 -0.15625q0.484375 0 0.921875 0.046875q0.453125 0.046875 0.9375 0.15625l0.234375 -1.640625q-0.265625 -0.109375 -0.765625 -0.171875q-0.5 -0.0625 -0.96875 -0.0625z" fill-rule="nonzero"/><path fill="#cfe2f3" d="m393.5118 482.77167l171.71652 0l0 42.015747l-171.71652 0z" fill-rule="evenodd"/><path fill="#073763" d="m430.83377 499.83228l0 1.46875l3.359375 0l0 6.9375l-3.359375 0l0 1.453125l8.265625 0l0 -1.453125l-3.21875 0l0 -8.40625l-5.046875 0zm3.140625 -2.578125q0 0.40625 0.25 0.6875q0.25 0.265625 0.765625 0.265625q0.5 0 0.75 -0.265625q0.25 -0.28125 0.25 -0.6875q0 -0.234375 -0.078125 -0.421875q-0.0625 -0.1875 -0.203125 -0.328125q-0.125 -0.109375 -0.3125 -0.171875q-0.171875 -0.078125 -0.40625 -0.078125q-0.25 0 -0.4375 0.078125q-0.171875 0.0625 -0.296875 0.171875q-0.140625 0.140625 -0.21875 0.34375q-0.0625 0.1875 -0.0625 0.40625zm7.7893066 12.4375l1.6875 0l0 -7.0625q0.171875 -0.328125 0.40625 -0.59375q0.234375 -0.265625 0.515625 -0.453125q0.328125 -0.234375 0.71875 -0.359375q0.40625 -0.140625 0.875 -0.140625q0.546875 0 0.953125 0.125q0.421875 0.125 0.703125 0.40625q0.28125 0.296875 0.421875 0.75q0.15625 0.453125 0.15625 1.109375l0 6.21875l1.6875 0l0 -6.265625q0 -0.96875 -0.25 -1.6875q-0.234375 -0.71875 -0.6875 -1.1875q-0.4375 -0.453125 -1.078125 -0.671875q-0.625 -0.21875 -1.40625 -0.21875q-0.5625 0 -1.078125 0.171875q-0.515625 0.15625 -0.953125 0.4375q-0.296875 0.1875 -0.5625 0.453125q-0.25 0.265625 -0.46875 0.5625l-0.125 -1.453125l-1.515625 0l0 9.859375zm17.758087 -2.609375q0 0.234375 -0.09375 0.453125q-0.09375 0.203125 -0.265625 0.375q-0.28125 0.28125 -0.78125 0.4375q-0.5 0.15625 -1.171875 0.15625q-0.4375 0 -0.875 -0.078125q-0.4375 -0.09375 -0.796875 -0.3125q-0.359375 -0.21875 -0.609375 -0.578125q-0.234375 -0.359375 -0.265625 -0.875l-1.6875 0q0 0.625 0.28125 1.21875q0.296875 0.578125 0.84375 1.015625q0.53125 0.4375 1.3125 0.71875q0.78125 0.265625 1.796875 0.265625q0.875 0 1.609375 -0.203125q0.734375 -0.21875 1.265625 -0.609375q0.53125 -0.375 0.8125 -0.90625q0.296875 -0.546875 0.296875 -1.203125q0 -0.609375 -0.265625 -1.0625q-0.25 -0.46875 -0.734375 -0.828125q-0.5 -0.34375 -1.21875 -0.59375q-0.71875 -0.25 -1.625 -0.453125q-0.6875 -0.125 -1.140625 -0.265625q-0.453125 -0.15625 -0.71875 -0.34375q-0.28125 -0.171875 -0.390625 -0.40625q-0.109375 -0.234375 -0.109375 -0.515625q0 -0.28125 0.140625 -0.546875q0.140625 -0.265625 0.40625 -0.46875q0.265625 -0.203125 0.671875 -0.3125q0.40625 -0.125 0.953125 -0.125q0.515625 0 0.921875 0.15625q0.421875 0.140625 0.71875 0.375q0.28125 0.234375 0.4375 0.546875q0.171875 0.296875 0.171875 0.625l1.6875 0q0 -0.65625 -0.28125 -1.21875q-0.265625 -0.5625 -0.78125 -0.96875q-0.515625 -0.421875 -1.25 -0.65625q-0.71875 -0.234375 -1.625 -0.234375q-0.859375 0 -1.5625 0.234375q-0.703125 0.21875 -1.21875 0.609375q-0.5 0.390625 -0.78125 0.921875q-0.28125 0.515625 -0.28125 1.109375q0 0.609375 0.265625 1.078125q0.28125 0.453125 0.78125 0.796875q0.484375 0.34375 1.171875 0.59375q0.703125 0.234375 1.5625 0.421875q0.6875 0.125 1.140625 0.296875q0.46875 0.171875 0.75 0.375q0.28125 0.203125 0.40625 0.4375q0.125 0.234375 0.125 0.546875zm8.633057 -9.640625l-1.703125 0l0 2.390625l-2.578125 0l0 1.3125l2.578125 0l0 5.34375q0 0.921875 0.234375 1.5625q0.25 0.640625 0.671875 1.046875q0.421875 0.40625 0.984375 0.59375q0.578125 0.1875 1.234375 0.1875q0.390625 0 0.78125 -0.046875q0.40625 -0.03125 0.75 -0.109375q0.359375 -0.0625 0.65625 -0.15625q0.296875 -0.09375 0.515625 -0.21875l-0.234375 -1.203125q-0.15625 0.046875 -0.40625 0.09375q-0.234375 0.046875 -0.515625 0.09375q-0.28125 0.046875 -0.578125 0.078125q-0.28125 0.03125 -0.546875 0.03125q-0.375 0 -0.71875 -0.09375q-0.328125 -0.09375 -0.578125 -0.3125q-0.265625 -0.21875 -0.40625 -0.59375q-0.140625 -0.375 -0.140625 -0.953125l0 -5.34375l3.75 0l0 -1.3125l-3.75 0l0 -2.390625zm13.679962 12.25l1.75 0l0 -0.140625q-0.15625 -0.421875 -0.25 -0.96875q-0.09375 -0.546875 -0.09375 -1.046875l0 -4.578125q0 -0.828125 -0.296875 -1.4375q-0.296875 -0.625 -0.8125 -1.046875q-0.53125 -0.40625 -1.25 -0.609375q-0.71875 -0.203125 -1.5625 -0.203125q-0.921875 0 -1.65625 0.25q-0.71875 0.25 -1.21875 0.65625q-0.5 0.421875 -0.78125 0.953125q-0.265625 0.515625 -0.265625 1.046875l1.6875 0q0 -0.3125 0.140625 -0.59375q0.15625 -0.28125 0.4375 -0.5q0.265625 -0.203125 0.65625 -0.328125q0.40625 -0.140625 0.90625 -0.140625q0.546875 0 0.96875 0.140625q0.4375 0.140625 0.734375 0.390625q0.296875 0.25 0.453125 0.609375q0.171875 0.34375 0.171875 0.796875l0 0.78125l-1.828125 0q-1.03125 0 -1.875 0.203125q-0.828125 0.1875 -1.421875 0.59375q-0.59375 0.40625 -0.921875 1.015625q-0.3125 0.609375 -0.3125 1.421875q0 0.625 0.234375 1.15625q0.25 0.53125 0.6875 0.90625q0.4375 0.40625 1.0625 0.640625q0.640625 0.21875 1.4375 0.21875q0.46875 0 0.890625 -0.109375q0.4375 -0.09375 0.828125 -0.265625q0.375 -0.171875 0.6875 -0.390625q0.3125 -0.234375 0.5625 -0.5q0.03125 0.3125 0.09375 0.609375q0.0625 0.28125 0.15625 0.46875zm-2.984375 -1.28125q-0.484375 0 -0.859375 -0.125q-0.375 -0.140625 -0.625 -0.359375q-0.234375 -0.21875 -0.359375 -0.53125q-0.125 -0.3125 -0.125 -0.671875q0 -0.390625 0.140625 -0.6875q0.140625 -0.296875 0.40625 -0.515625q0.390625 -0.3125 1.03125 -0.453125q0.65625 -0.15625 1.53125 -0.15625l1.5625 0l0 2.0q-0.140625 0.28125 -0.40625 0.5625q-0.25 0.265625 -0.59375 0.46875q-0.34375 0.203125 -0.78125 0.34375q-0.421875 0.125 -0.921875 0.125zm7.9611816 -12.71875l0 1.46875l3.359375 0l0 11.078125l-3.359375 0l0 1.453125l8.265625 0l0 -1.453125l-3.21875 0l0 -12.546875l-5.046875 0zm11.195587 0l0 1.46875l3.359375 0l0 11.078125l-3.359375 0l0 1.453125l8.265625 0l0 -1.453125l-3.21875 0l0 -12.546875l-5.046875 0zm15.289307 14.1875q1.4375 0 2.421875 -0.578125q0.984375 -0.578125 1.46875 -1.328125l-1.03125 -0.796875q-0.46875 0.59375 -1.171875 0.96875q-0.6875 0.359375 -1.59375 0.359375q-0.6875 0 -1.25 -0.25q-0.5625 -0.265625 -0.96875 -0.71875q-0.390625 -0.40625 -0.609375 -0.953125q-0.21875 -0.546875 -0.28125 -1.265625l0 -0.078125l7.03125 0l0 -0.75q0 -1.03125 -0.265625 -1.90625q-0.25 -0.890625 -0.78125 -1.546875q-0.53125 -0.640625 -1.328125 -1.0q-0.796875 -0.375 -1.859375 -0.375q-0.84375 0 -1.65625 0.34375q-0.796875 0.34375 -1.4375 0.984375q-0.625 0.65625 -1.015625 1.609375q-0.375 0.9375 -0.375 2.125l0 0.390625q0 1.03125 0.34375 1.90625q0.34375 0.875 0.96875 1.5q0.609375 0.640625 1.484375 1.0q0.875 0.359375 1.90625 0.359375zm-0.21875 -8.84375q0.65625 0 1.125 0.234375q0.46875 0.234375 0.765625 0.625q0.3125 0.375 0.484375 0.90625q0.171875 0.515625 0.171875 0.984375l0 0.078125l-5.296875 0q0.09375 -0.6875 0.34375 -1.203125q0.265625 -0.53125 0.625 -0.890625q0.359375 -0.359375 0.8125 -0.546875q0.453125 -0.1875 0.96875 -0.1875zm13.523682 -1.375q-1.078125 0 -1.921875 0.46875q-0.84375 0.46875 -1.4375 1.265625l-0.015625 -0.234375l-0.078125 -1.328125l-1.59375 0l0 9.859375l1.6875 0l0 -6.328125q0.171875 -0.453125 0.421875 -0.8125q0.25 -0.375 0.578125 -0.625q0.375 -0.296875 0.875 -0.4375q0.5 -0.15625 1.125 -0.15625q0.484375 0 0.921875 0.046875q0.453125 0.046875 0.9375 0.15625l0.234375 -1.640625q-0.265625 -0.109375 -0.765625 -0.171875q-0.5 -0.0625 -0.96875 -0.0625z" fill-rule="nonzero"/><path fill="#cfe2f3" d="m393.5118 541.6063l171.71652 0l0 42.015747l-171.71652 0z" fill-rule="evenodd"/><path fill="#073763" d="m453.74054 558.66693l-1.515625 0l0 9.859375l1.609375 0l0 -7.84375q0.046875 -0.140625 0.125 -0.265625q0.09375 -0.140625 0.21875 -0.234375q0.15625 -0.125 0.375 -0.1875q0.21875 -0.078125 0.53125 -0.078125q0.265625 0 0.46875 0.078125q0.203125 0.0625 0.34375 0.203125q0.15625 0.15625 0.21875 0.390625q0.0625 0.234375 0.0625 0.546875l0 7.390625l1.609375 0l0 -7.375q0 -0.0625 0 -0.09375q0 -0.046875 0 -0.09375q0.03125 -0.21875 0.109375 -0.40625q0.078125 -0.1875 0.21875 -0.34375q0.15625 -0.125 0.375 -0.203125q0.21875 -0.09375 0.515625 -0.09375q0.28125 0 0.484375 0.078125q0.21875 0.0625 0.375 0.21875q0.140625 0.15625 0.203125 0.390625q0.078125 0.234375 0.078125 0.546875l0 7.375l1.59375 0l0 -7.359375q0 -0.71875 -0.171875 -1.234375q-0.15625 -0.53125 -0.453125 -0.859375q-0.28125 -0.28125 -0.703125 -0.421875q-0.40625 -0.15625 -0.921875 -0.15625q-0.359375 0 -0.6875 0.09375q-0.3125 0.09375 -0.5625 0.25q-0.203125 0.125 -0.375 0.3125q-0.171875 0.1875 -0.296875 0.390625q-0.109375 -0.21875 -0.25 -0.40625q-0.140625 -0.1875 -0.3125 -0.3125q-0.234375 -0.15625 -0.546875 -0.234375q-0.3125 -0.09375 -0.703125 -0.09375q-0.6875 0 -1.1875 0.296875q-0.484375 0.28125 -0.78125 0.8125l-0.046875 -0.9375zm10.679932 0l0 1.46875l3.359375 0l0 6.9375l-3.359375 0l0 1.453125l8.265625 0l0 -1.453125l-3.21875 0l0 -8.40625l-5.046875 0zm3.140625 -2.578125q0 0.40625 0.25 0.6875q0.25 0.265625 0.765625 0.265625q0.5 0 0.75 -0.265625q0.25 -0.28125 0.25 -0.6875q0 -0.234375 -0.078125 -0.421875q-0.0625 -0.1875 -0.203125 -0.328125q-0.125 -0.109375 -0.3125 -0.171875q-0.171875 -0.078125 -0.40625 -0.078125q-0.25 0 -0.4375 0.078125q-0.171875 0.0625 -0.296875 0.171875q-0.140625 0.140625 -0.21875 0.34375q-0.0625 0.1875 -0.0625 0.40625zm11.867462 6.234375l-2.609375 -3.65625l-1.9375 0l3.65625 4.875l-3.765625 4.984375l1.96875 0l2.71875 -3.75l2.734375 3.75l1.9375 0l-3.765625 -4.984375l3.671875 -4.875l-1.96875 0l-2.640625 3.65625zm11.476807 6.390625q1.4375 0 2.421875 -0.578125q0.984375 -0.578125 1.46875 -1.328125l-1.03125 -0.796875q-0.46875 0.59375 -1.171875 0.96875q-0.6875 0.359375 -1.59375 0.359375q-0.6875 0 -1.25 -0.25q-0.5625 -0.265625 -0.96875 -0.71875q-0.390625 -0.40625 -0.609375 -0.953125q-0.21875 -0.546875 -0.28125 -1.265625l0 -0.078125l7.03125 0l0 -0.75q0 -1.03125 -0.265625 -1.90625q-0.25 -0.890625 -0.78125 -1.546875q-0.53125 -0.640625 -1.328125 -1.0q-0.796875 -0.375 -1.859375 -0.375q-0.84375 0 -1.65625 0.34375q-0.796875 0.34375 -1.4375 0.984375q-0.625 0.65625 -1.015625 1.609375q-0.375 0.9375 -0.375 2.125l0 0.390625q0 1.03125 0.34375 1.90625q0.34375 0.875 0.96875 1.5q0.609375 0.640625 1.484375 1.0q0.875 0.359375 1.90625 0.359375zm-0.21875 -8.84375q0.65625 0 1.125 0.234375q0.46875 0.234375 0.765625 0.625q0.3125 0.375 0.484375 0.90625q0.171875 0.515625 0.171875 0.984375l0 0.078125l-5.296875 0q0.09375 -0.6875 0.34375 -1.203125q0.265625 -0.53125 0.625 -0.890625q0.359375 -0.359375 0.8125 -0.546875q0.453125 -0.1875 0.96875 -0.1875zm13.523712 -1.375q-1.078125 0 -1.921875 0.46875q-0.84375 0.46875 -1.4375 1.265625l-0.015625 -0.234375l-0.078125 -1.328125l-1.59375 0l0 9.859375l1.6875 0l0 -6.328125q0.171875 -0.453125 0.421875 -0.8125q0.25 -0.375 0.578125 -0.625q0.375 -0.296875 0.875 -0.4375q0.5 -0.15625 1.125 -0.15625q0.484375 0 0.921875 0.046875q0.453125 0.046875 0.9375 0.15625l0.234375 -1.640625q-0.265625 -0.109375 -0.765625 -0.171875q-0.5 -0.0625 -0.96875 -0.0625z" fill-rule="nonzero"/><path fill="#000000" fill-opacity="0.0" d="m384.6929 72.25197c0 4.204727 23.669312 6.307083 47.338593 8.409447c23.669281 2.1023636 47.338593 4.204727 47.338593 8.409454" fill-rule="evenodd"/><path stroke="#0b5394" stroke-width="1.0" stroke-linejoin="round" stroke-linecap="butt" d="m384.6929 72.25197c0 4.204727 23.669312 6.307083 47.338593 8.409447c11.834656 1.0511856 23.669281 2.1023636 32.545288 3.4163437c4.4379883 0.6569824 8.136322 1.3796692 10.725128 2.2009048c0.3236084 0.1026535 0.6298828 0.20684814 0.9180603 0.31264496c0.14413452 0.05290222 0.28372192 0.1062088 0.4187317 0.15991211l0.15200806 0.06312561" fill-rule="evenodd"/><path fill="#0b5394" stroke="#0b5394" stroke-width="1.0" stroke-linecap="butt" d="m476.79074 86.814354l-1.5868835 0.10593414l3.0659485 1.1880112l-1.585022 -2.8808212z" fill-rule="evenodd"/><path fill="#000000" fill-opacity="0.0" d="m574.04724 72.25197c0 4.204727 -23.669312 6.307083 -47.338562 8.409447c-23.669312 2.1023636 -47.338593 4.204727 -47.338593 8.409454" fill-rule="evenodd"/><path stroke="#0b5394" stroke-width="1.0" stroke-linejoin="round" stroke-linecap="butt" d="m574.04724 72.25197c0 4.204727 -23.669312 6.307083 -47.338562 8.409447c-11.834656 1.0511856 -23.669312 2.1023636 -32.545288 3.4163437c-4.4379883 0.6569824 -8.136322 1.3796692 -10.725159 2.2009048c-0.3236084 0.1026535 -0.6298828 0.20684814 -0.9180603 0.31264496c-0.144104 0.05290222 -0.2836914 0.1062088 -0.41870117 0.15991211l-0.15203857 0.06312561" fill-rule="evenodd"/><path fill="#0b5394" stroke="#0b5394" stroke-width="1.0" stroke-linecap="butt" d="m481.94943 86.814354l0.10592651 -1.5868759l-1.5849915 2.8808212l3.065918 -1.1880112z" fill-rule="evenodd"/><path fill="#000000" fill-opacity="0.0" d="m479.3701 131.08661c0 4.204727 0.01574707 6.3070984 0.03149414 8.409454c0.01574707 2.102356 0.03149414 4.204727 0.03149414 8.409454" fill-rule="evenodd"/><path stroke="#0b5394" stroke-width="1.0" stroke-linejoin="round" stroke-linecap="butt" d="m479.3701 131.08661c0 4.204727 0.01574707 6.3070984 0.03149414 8.409454c0.007873535 1.051178 0.01574707 2.102356 0.021636963 3.416336l0.0050964355 1.5660248" fill-rule="evenodd"/><path fill="#0b5394" stroke="#0b5394" stroke-width="1.0" stroke-linecap="butt" d="m479.4283 144.47842l-1.1261597 -1.1230164l1.1288757 3.0881958l1.1203003 -3.0913239z" fill-rule="evenodd"/><path fill="#000000" fill-opacity="0.0" d="m479.3701 189.92126c0 4.204727 0.01574707 6.307083 0.03149414 8.409439c0.01574707 2.1023712 0.03149414 4.204727 0.03149414 8.409454" fill-rule="evenodd"/><path stroke="#0b5394" stroke-width="1.0" stroke-linejoin="round" stroke-linecap="butt" d="m479.3701 189.92126c0 4.204727 0.01574707 6.307083 0.03149414 8.409439c0.007873535 1.0511932 0.01574707 2.1023712 0.021636963 3.416336l0.0050964355 1.56604" fill-rule="evenodd"/><path fill="#0b5394" stroke="#0b5394" stroke-width="1.0" stroke-linecap="butt" d="m479.4283 203.31308l-1.1261597 -1.1230316l1.1288757 3.088211l1.1203003 -3.0913239z" fill-rule="evenodd"/><path fill="#000000" fill-opacity="0.0" d="m479.3701 407.1181c0 4.2047424 0.01574707 6.3070984 0.03149414 8.409454c0.01574707 2.102356 0.03149414 4.204712 0.03149414 8.409454" fill-rule="evenodd"/><path stroke="#0b5394" stroke-width="1.0" stroke-linejoin="round" stroke-linecap="butt" d="m479.3701 407.1181c0 4.2047424 0.01574707 6.3070984 0.03149414 8.409454c0.007873535 1.051178 0.01574707 2.102356 0.021636963 3.4163513l0.0050964355 1.5660095" fill-rule="evenodd"/><path fill="#0b5394" stroke="#0b5394" stroke-width="1.0" stroke-linecap="butt" d="m479.4283 420.50992l-1.1261597 -1.1230164l1.1288757 3.0881958l1.1203003 -3.0913086z" fill-rule="evenodd"/><path fill="#000000" fill-opacity="0.0" d="m479.3701 465.95276c0 4.204712 0.01574707 6.3070984 0.03149414 8.409454c0.01574707 2.102356 0.03149414 4.204712 0.03149414 8.409454" fill-rule="evenodd"/><path stroke="#0b5394" stroke-width="1.0" stroke-linejoin="round" stroke-linecap="butt" d="m479.3701 465.95276c0 4.204712 0.01574707 6.3070984 0.03149414 8.409454c0.007873535 1.051178 0.01574707 2.102356 0.021636963 3.4163208l0.0050964355 1.56604" fill-rule="evenodd"/><path fill="#0b5394" stroke="#0b5394" stroke-width="1.0" stroke-linecap="butt" d="m479.4283 479.34457l-1.1261597 -1.1230164l1.1288757 3.0881958l1.1203003 -3.091339z" fill-rule="evenodd"/><path fill="#000000" fill-opacity="0.0" d="m479.3701 524.7874c0 4.204712 0.01574707 6.307068 0.03149414 8.409424c0.01574707 2.102356 0.03149414 4.204712 0.03149414 8.409485" fill-rule="evenodd"/><path stroke="#0b5394" stroke-width="1.0" stroke-linejoin="round" stroke-linecap="butt" d="m479.3701 524.7874c0 4.204712 0.01574707 6.307068 0.03149414 8.409424c0.007873535 1.0512085 0.01574707 2.102356 0.021636963 3.4163208l0.0050964355 1.56604" fill-rule="evenodd"/><path fill="#0b5394" stroke="#0b5394" stroke-width="1.0" stroke-linecap="butt" d="m479.4283 538.1792l-1.1261597 -1.1229858l1.1288757 3.0881958l1.1203003 -3.0913696z" fill-rule="evenodd"/></g></svg>